<svg id="paypal" xmlns="http://www.w3.org/2000/svg" width="17.529" height="20.989" viewBox="0 0 17.529 20.989">
  <path id="Path_48" data-name="Path 48" d="M58.045,5.423a7.212,7.212,0,0,0,.054-.881A4.541,4.541,0,0,0,53.558,0h-7.59A.978.978,0,0,0,45,.816l-2.8,16.622a.978.978,0,0,0,.964,1.14h2.776a.986.986,0,0,0,.972-.815l.013-.077h0l-.387,2.3a.862.862,0,0,0,.85,1h2.428a.862.862,0,0,0,.85-.719l.69-4.1a1.468,1.468,0,0,1,1.448-1.224h.638a6.274,6.274,0,0,0,6.274-6.274A3.979,3.979,0,0,0,58.045,5.423Z" transform="translate(-42.193)" fill="#002987"/>
  <path id="Path_49" data-name="Path 49" d="M159.567,132.28a7.151,7.151,0,0,1-7.1,6.268h-2.118a1.062,1.062,0,0,0-1.02.769l-1.266,7.524a.862.862,0,0,0,.85,1h2.428a.862.862,0,0,0,.85-.719l.69-4.1a1.468,1.468,0,0,1,1.448-1.224h.638a6.274,6.274,0,0,0,6.274-6.274h0A3.979,3.979,0,0,0,159.567,132.28Z" transform="translate(-143.716 -126.857)" fill="#0085cc"/>
  <path id="Path_50" data-name="Path 50" d="M180.253,121.308h2.118a7.151,7.151,0,0,0,7.1-6.268,3.966,3.966,0,0,0-2.308-.737h-5.528a1.289,1.289,0,0,0-1.271,1.075l-1.127,6.7A1.062,1.062,0,0,1,180.253,121.308Z" transform="translate(-173.615 -109.617)" fill="#00186a"/>
</svg>
