<svg xmlns="http://www.w3.org/2000/svg" width="38.364" height="38.177" viewBox="0 0 38.364 38.177"><defs><style>.a{fill:#414141;}</style></defs><g transform="translate(-0.9 -0.761)"><g transform="translate(0.9 0.761)"><path class="a" d="M39.264,32.339c-2.136,5.5-6.983,7.886-12.9,5.915-12.9-4.108-21.359-12.733-25.138-25.8-.082-.246-.246-.493-.329-.739V8.433C1.722,6.79,2.379,5.065,3.282,3.5a5.39,5.39,0,0,1,2.3-1.972C8.7.136,9.608.547,11.251,3.5c.986,1.643,1.889,3.368,2.957,4.929a1.921,1.921,0,0,1-.246,2.875,15.771,15.771,0,0,0-1.232,1.15c-3.368,2.875-3.368,2.793-1.068,6.654A29.057,29.057,0,0,0,22.916,29.464a2.267,2.267,0,0,0,3.2-.575c3.7-3.943,3.7-3.861,8.3-1.4,1.643.9,3.2,1.807,4.765,2.711A20.044,20.044,0,0,1,39.264,32.339Z" transform="translate(-0.9 -0.761)"/></g></g></svg>