<?xml version="1.0"?>
<svg xmlns="http://www.w3.org/2000/svg" id="Capa_1" enable-background="new 0 0 473.423 473.423" height="512px" viewBox="0 0 473.423 473.423" width="512px"><g><path d="m471.669 422.042-71.399-133.277-26.092 13.985 59.74 111.49h-138.03v-29.588l-59.176 44.382 59.176 44.382v-29.588h162.735c5.201 0 10.026-2.731 12.699-7.195 2.673-4.463 2.803-9.996.347-14.591z" data-original="#000000" class="active-path" data-old_color="#000000" fill="#EEEEEE"/><path d="m118.778 266.283 25.514 13.765-10.962-73.152-67.159 31.008 26.554 14.326-90.971 169.812c-2.456 4.594-2.326 10.128.347 14.592s7.498 7.195 12.699 7.195h192.323v-29.588h-167.618s79.273-147.958 79.273-147.958z" data-original="#000000" class="active-path" data-old_color="#000000" fill="#EEEEEE"/><path d="m304.174 231.37 65.203 34.93 15.276-72.376-28.167 13.106-106.743-199.223c-2.589-4.796-7.81-7.794-13.032-7.802-5.238-.008-10.477 2.99-13.06 7.816l-87.161 162.707 26.092 13.985 74.115-138.391 92.907 173.415z" data-original="#000000" class="active-path" data-old_color="#000000" fill="#EEEEEE"/></g> </svg>
