<svg xmlns="http://www.w3.org/2000/svg" width="17.291" height="15.198" viewBox="0 0 17.291 15.198"><g transform="translate(0 0)"><path d="M5.571,10.132h9.187a.507.507,0,0,0,.487-.367l2.026-7.092a.507.507,0,0,0-.487-.646H4.4L4.04.4A.507.507,0,0,0,3.546,0H.506a.507.507,0,1,0,0,1.013H3.14L4.969,9.244a1.52,1.52,0,0,0,.6,2.914h9.186a.507.507,0,0,0,0-1.013H5.572a.507.507,0,0,1,0-1.013ZM16.113,3.04,14.376,9.119h-8.4L4.628,3.04Zm0,0"/><path d="M150,361.52a1.52,1.52,0,1,0,1.52-1.52A1.521,1.521,0,0,0,150,361.52Zm1.52-.507a.507.507,0,1,1-.507.507A.507.507,0,0,1,151.52,361.013Zm0,0" transform="translate(-144.934 -347.842)"/><path d="M362,361.52a1.52,1.52,0,1,0,1.52-1.52A1.521,1.521,0,0,0,362,361.52Zm1.52-.507a.507.507,0,1,1-.507.507A.507.507,0,0,1,363.52,361.013Zm0,0" transform="translate(-349.775 -347.842)"/></g></svg>