<svg xmlns="http://www.w3.org/2000/svg" width="40.008" height="38.38" viewBox="0 0 40.008 38.38"><defs><style>.a{fill:#414141;fill-rule:evenodd;}</style></defs><path class="a" d="M36.848,18.461c-.688.344-.688,3.269,2.925,4.99A9.6,9.6,0,0,1,31.342,20.1a21.811,21.811,0,0,1-2.5.344c-7.055,0-11.271-4.044-11.271-9.12s4.3-9.12,11.271-9.12,12.562,4.13,12.562,9.12C41.408,14.245,39.687,16.741,36.848,18.461ZM15.166,12.267c.344,5.593,5.248,10.325,12.82,10.755a22.217,22.217,0,0,0,2.5-.258h0l.258-.086a9.05,9.05,0,0,0,6.539,2.667C35.644,31.453,29.621,35.927,20.5,35.927a26.749,26.749,0,0,1-3.786-.516C11.725,41.692,3.9,40.487,3.9,40.487c5.593-2.667,5.42-6.969,4.474-7.571C3.981,30.335,1.4,26.463,1.4,22.075c0-6.539,6.195-12.045,14.627-13.594A6.633,6.633,0,0,0,15.166,12.267Z" transform="translate(-1.4 -2.2)"/></svg>