<svg xmlns="http://www.w3.org/2000/svg" width="31.539" height="18.923" viewBox="0 0 31.539 18.923">
  <g id="mastercard" transform="translate(0 0)">
    <path id="Path_7" data-name="Path 7" d="M220.523,110.262a9.462,9.462,0,1,1-18.923,0h0a9.462,9.462,0,1,1,18.923,0Z" transform="translate(-188.984 -100.8)" fill="#ffb600"/>
    <path id="Path_8" data-name="Path 8" d="M211.062,100.8a9.486,9.486,0,0,1,9.462,9.462h0a9.462,9.462,0,1,1-18.923,0" transform="translate(-188.984 -100.8)" fill="#f7981d"/>
    <path id="Path_9" data-name="Path 9" d="M352.8,100.8a9.486,9.486,0,0,1,9.462,9.462h0a9.454,9.454,0,0,1-9.462,9.462" transform="translate(-330.723 -100.8)" fill="#ff8500"/>
    <path id="Path_10" data-name="Path 10" d="M9.362,100.8a9.462,9.462,0,0,0,.1,18.923,9.572,9.572,0,0,0,6.358-2.453h0a9,9,0,0,0,.951-1H14.818a11.547,11.547,0,0,1-.7-.951h3.354a6.413,6.413,0,0,0,.551-1H13.567a5.966,5.966,0,0,1-.4-1h5.206a9.941,9.941,0,0,0,.5-3,12.922,12.922,0,0,0-.2-2H12.866a7.319,7.319,0,0,1,.25-1h5.206a5.967,5.967,0,0,0-.4-1H13.517a9.926,9.926,0,0,1,.551-1h3.354a4.761,4.761,0,0,0-.751-1H14.818a8.533,8.533,0,0,1,.951-.951A9.238,9.238,0,0,0,9.412,100.9C9.412,100.8,9.412,100.8,9.362,100.8Z" transform="translate(0 -100.8)" fill="#ff5050"/>
    <path id="Path_11" data-name="Path 11" d="M0,111.762a9.454,9.454,0,0,0,9.462,9.462,9.572,9.572,0,0,0,6.358-2.453h0a9,9,0,0,0,.951-1H14.818a11.551,11.551,0,0,1-.7-.951h3.354a6.413,6.413,0,0,0,.551-1H13.567a5.967,5.967,0,0,1-.4-1h5.206a9.941,9.941,0,0,0,.5-3,12.922,12.922,0,0,0-.2-2H12.866a7.319,7.319,0,0,1,.25-1h5.206a5.967,5.967,0,0,0-.4-1H13.517a9.928,9.928,0,0,1,.551-1h3.354a4.76,4.76,0,0,0-.751-1H14.818a8.534,8.534,0,0,1,.951-.951A9.238,9.238,0,0,0,9.412,102.4h-.05" transform="translate(0 -102.3)" fill="#e52836"/>
    <path id="Path_12" data-name="Path 12" d="M149.7,121.223a9.572,9.572,0,0,0,6.358-2.453h0a9,9,0,0,0,.951-1h-1.952a11.558,11.558,0,0,1-.7-.951h3.354a6.415,6.415,0,0,0,.551-1h-4.455a5.968,5.968,0,0,1-.4-1h5.206a9.941,9.941,0,0,0,.5-3,12.918,12.918,0,0,0-.2-2H153.1a7.321,7.321,0,0,1,.25-1h5.206a5.969,5.969,0,0,0-.4-1h-4.405a9.93,9.93,0,0,1,.551-1h3.354a4.762,4.762,0,0,0-.751-1h-1.852a8.535,8.535,0,0,1,.951-.951,9.238,9.238,0,0,0-6.358-2.453h-.05" transform="translate(-140.238 -102.3)" fill="#cb2026"/>
    <g id="Group_19" data-name="Group 19" transform="translate(0.901 7.009)">
      <path id="Path_13" data-name="Path 13" d="M183.052,224.405l.15-.851a2.169,2.169,0,0,1-.25.05c-.35,0-.4-.2-.35-.3l.3-1.752h.551l.15-.951h-.5l.1-.6h-1s-.6,3.3-.6,3.7a.751.751,0,0,0,.8.851A1.536,1.536,0,0,0,183.052,224.405Z" transform="translate(-171.137 -219.549)" fill="#fff"/>
      <path id="Path_14" data-name="Path 14" d="M210.4,230.958a1.592,1.592,0,0,0,1.752,1.752,2.6,2.6,0,0,0,1.051-.15l.2-.951a3,3,0,0,1-1.051.25c-1.1,0-.9-.8-.9-.8H213.5a6.491,6.491,0,0,0,.15-.9,1.356,1.356,0,0,0-1.452-1.452C211.151,228.6,210.4,229.706,210.4,230.958Zm1.752-1.452c.551,0,.451.651.451.7h-1.1C211.5,230.157,211.6,229.506,212.152,229.506Z" transform="translate(-198.135 -227.704)" fill="#fff"/>
      <path id="Path_15" data-name="Path 15" d="M298.753,217.656l.2-1.1a2.461,2.461,0,0,1-.851.25c-.7,0-1-.551-1-1.151,0-1.2.6-1.852,1.3-1.852a1.672,1.672,0,0,1,.9.3l.15-1.051a3.52,3.52,0,0,0-1.151-.25c-1.151,0-2.3,1-2.3,2.9,0,1.252.6,2.1,1.8,2.1A4.493,4.493,0,0,0,298.753,217.656Z" transform="translate(-278.378 -212.8)" fill="#fff"/>
      <path id="Path_16" data-name="Path 16" d="M88.3,227.2a3.546,3.546,0,0,0-1.2.2l-.15.851a2.959,2.959,0,0,1,1.1-.2c.35,0,.651.05.651.35,0,.2-.05.25-.05.25H88.2c-.851,0-1.8.35-1.8,1.5,0,.9.6,1.1.951,1.1A1.5,1.5,0,0,0,88.4,230.8l-.05.4h.9l.4-2.753A1.186,1.186,0,0,0,88.3,227.2Zm.2,2.253c0,.15-.1.951-.7.951a.391.391,0,0,1-.4-.4c0-.25.15-.6.9-.6A.789.789,0,0,0,88.5,229.453Z" transform="translate(-81.894 -226.299)" fill="#fff"/>
      <path id="Path_17" data-name="Path 17" d="M136.351,230.505a1.283,1.283,0,0,0,1.5-1.3c0-1.252-1.2-1-1.2-1.5,0-.25.2-.35.551-.35.15,0,.7.05.7.05l.15-.9a3.8,3.8,0,0,0-.951-.1c-.751,0-1.5.3-1.5,1.3,0,1.151,1.252,1.051,1.252,1.5,0,.3-.35.35-.6.35a3.274,3.274,0,0,1-.9-.15l-.15.9C135.25,230.4,135.5,230.505,136.351,230.505Z" transform="translate(-127.641 -225.549)" fill="#fff"/>
      <path id="Path_18" data-name="Path 18" d="M430.053,214.4l-.2,1.352a1.388,1.388,0,0,0-.951-.5c-.9,0-1.7,1.1-1.7,2.4,0,.8.4,1.652,1.252,1.652a1.336,1.336,0,0,0,.951-.4l-.05.35h1l.751-4.806Zm-.451,2.653c0,.551-.25,1.252-.8,1.252-.35,0-.551-.3-.551-.8,0-.8.35-1.3.8-1.3C429.4,216.2,429.6,216.453,429.6,217.053Z" transform="translate(-401.368 -214.3)" fill="#fff"/>
      <path id="Path_19" data-name="Path 19" d="M15.351,219.206l.6-3.6.1,3.6h.7l1.3-3.6-.551,3.6h1.051l.8-4.806H17.7l-1,2.954-.05-2.954H15.2l-.8,4.806Z" transform="translate(-14.4 -214.3)" fill="#fff"/>
      <path id="Path_20" data-name="Path 20" d="M261.1,232.7c.3-1.652.35-3,1.051-2.753a3.93,3.93,0,0,1,.35-1.151h-.2c-.451,0-.8.6-.8.6l.1-.551h-.951l-.651,3.9h1.1Z" transform="translate(-244.631 -227.799)" fill="#fff"/>
      <path id="Path_21" data-name="Path 21" d="M348.3,227.2a3.545,3.545,0,0,0-1.2.2l-.15.851a2.959,2.959,0,0,1,1.1-.2c.35,0,.651.05.651.35,0,.2-.05.25-.05.25H348.2c-.851,0-1.8.35-1.8,1.5,0,.9.6,1.1.951,1.1a1.5,1.5,0,0,0,1.051-.451l-.05.4h.9l.4-2.753A1.169,1.169,0,0,0,348.3,227.2Zm.25,2.253c0,.15-.1.951-.7.951a.391.391,0,0,1-.4-.4c0-.25.15-.6.9-.6C348.5,229.453,348.5,229.453,348.553,229.453Z" transform="translate(-325.624 -226.299)" fill="#fff"/>
      <path id="Path_22" data-name="Path 22" d="M395.5,232.7c.3-1.652.35-3,1.051-2.753a3.927,3.927,0,0,1,.35-1.151h-.2c-.451,0-.8.6-.8.6l.1-.551h-.951l-.651,3.9h1.1Z" transform="translate(-370.621 -227.799)" fill="#fff"/>
    </g>
    <g id="Group_20" data-name="Group 20" transform="translate(0.901 7.009)">
      <path id="Path_23" data-name="Path 23" d="M180,223.7a.751.751,0,0,0,.8.851,1.905,1.905,0,0,0,.751-.15l.15-.851a2.167,2.167,0,0,1-.25.05c-.35,0-.4-.2-.35-.3l.3-1.752h.551l.15-.951h-.5l.1-.6" transform="translate(-169.637 -219.549)" fill="#dce5e5"/>
      <path id="Path_24" data-name="Path 24" d="M218.4,230.958c0,1.4.451,1.752,1.252,1.752a2.6,2.6,0,0,0,1.051-.15l.2-.951a3,3,0,0,1-1.051.25c-1.1,0-.9-.8-.9-.8H221a6.49,6.49,0,0,0,.15-.9,1.356,1.356,0,0,0-1.452-1.452C218.65,228.6,218.4,229.706,218.4,230.958Zm1.252-1.452c.551,0,.651.651.651.7H219C219,230.157,219.1,229.506,219.652,229.506Z" transform="translate(-205.634 -227.704)" fill="#dce5e5"/>
      <path id="Path_25" data-name="Path 25" d="M306.253,217.656l.2-1.1a2.461,2.461,0,0,1-.851.25c-.7,0-1-.551-1-1.151,0-1.2.6-1.852,1.3-1.852a1.672,1.672,0,0,1,.9.3l.15-1.051a3.52,3.52,0,0,0-1.151-.25c-1.151,0-1.8,1-1.8,2.9,0,1.252.1,2.1,1.3,2.1A4.493,4.493,0,0,0,306.253,217.656Z" transform="translate(-285.878 -212.8)" fill="#dce5e5"/>
      <path id="Path_26" data-name="Path 26" d="M86.951,229.8a2.959,2.959,0,0,1,1.1-.2c.35,0,.651.05.651.35,0,.2-.05.25-.05.25H88.2c-.851,0-1.8.35-1.8,1.5,0,.9.6,1.1.951,1.1a1.5,1.5,0,0,0,1.051-.451l-.05.4h.9l.4-2.753c0-1.151-1-1.2-1.4-1.2M89,230.953a1.639,1.639,0,0,1-1.2.951.391.391,0,0,1-.4-.4c0-.25.15-.6.9-.6A4.09,4.09,0,0,0,89,230.953Z" transform="translate(-81.894 -227.799)" fill="#dce5e5"/>
      <path id="Path_27" data-name="Path 27" d="M136,230.4a4.236,4.236,0,0,0,1.151.1,1.283,1.283,0,0,0,1.5-1.3c0-1.252-1.2-1-1.2-1.5,0-.25.2-.35.551-.35.15,0,.7.05.7.05l.15-.9a3.8,3.8,0,0,0-.951-.1c-.751,0-1,.3-1,1.3,0,1.151.751,1.051.751,1.5,0,.3-.35.35-.6.35" transform="translate(-128.391 -225.549)" fill="#dce5e5"/>
      <path id="Path_28" data-name="Path 28" d="M437.3,216.5a1.388,1.388,0,0,0-.951-.5c-.9,0-1.2,1.1-1.2,2.4,0,.8-.1,1.652.751,1.652a1.336,1.336,0,0,0,.951-.4l-.05.35h1l.751-4.806m-1.3,2.6c0,.551-.451,1.252-1,1.252-.35,0-.551-.3-.551-.8,0-.8.35-1.3.8-1.3A.765.765,0,0,1,437.248,217.8Z" transform="translate(-408.813 -215.05)" fill="#dce5e5"/>
      <path id="Path_29" data-name="Path 29" d="M15.351,219.206l.6-3.6.1,3.6h.7l1.3-3.6-.551,3.6h1.051l.8-4.806H18.1l-1.4,2.954-.05-2.954H16.1l-1.7,4.806Z" transform="translate(-14.4 -214.3)" fill="#dce5e5"/>
      <path id="Path_30" data-name="Path 30" d="M260.8,232.7h1.051c.3-1.652.35-3,1.051-2.753a3.928,3.928,0,0,1,.35-1.151h-.2c-.451,0-.8.6-.8.6l.1-.551" transform="translate(-245.381 -227.799)" fill="#dce5e5"/>
      <path id="Path_31" data-name="Path 31" d="M346.951,229.8a2.959,2.959,0,0,1,1.1-.2c.35,0,.651.05.651.35,0,.2-.05.25-.05.25H348.2c-.851,0-1.8.35-1.8,1.5,0,.9.6,1.1.951,1.1a1.5,1.5,0,0,0,1.051-.451l-.05.4h.9l.4-2.753c0-1.151-1-1.2-1.4-1.2m.751,2.153a1.639,1.639,0,0,1-1.2.951.391.391,0,0,1-.4-.4c0-.25.15-.6.9-.6A4.4,4.4,0,0,0,349,230.953Z" transform="translate(-325.624 -227.799)" fill="#dce5e5"/>
      <path id="Path_32" data-name="Path 32" d="M395.2,232.7h1.051c.3-1.652.35-3,1.051-2.753a3.928,3.928,0,0,1,.35-1.151h-.2c-.451,0-.8.6-.8.6l.1-.551" transform="translate(-371.371 -227.799)" fill="#dce5e5"/>
    </g>
  </g>
</svg>
