<?xml version="1.0" encoding="utf-8"?>
<!-- Generator: Adobe Illustrator 23.0.3, SVG Export Plug-In . SVG Version: 6.00 Build 0)  -->
<svg version="1.1" id="Layer_1" xmlns="http://www.w3.org/2000/svg" xmlns:xlink="http://www.w3.org/1999/xlink" x="0px" y="0px"
	 viewBox="0 0 19.7 16" style="enable-background:new 0 0 19.7 16;" xml:space="preserve">
<style type="text/css">
	.st0{clip-path:url(#SVGID_2_);}
	.st1{fill:#FFFFFF;}
</style>
<g>
	<defs>
		<rect id="SVGID_1_" y="0" width="19.7" height="16"/>
	</defs>
	<clipPath id="SVGID_2_">
		<use xlink:href="#SVGID_1_"  style="overflow:visible;"/>
	</clipPath>
	<g id="Twitter" transform="translate(0 0)" class="st0">
		<path id="Path_26" class="st1" d="M17.7,4c0,0.2,0,0.4,0,0.5c0,6.3-5,11.4-11.3,11.5c-0.1,0-0.1,0-0.2,0C4,16,1.8,15.4,0,14.2
			c0.3,0,0.6,0.1,1,0c1.8,0,3.6-0.6,5-1.7c-1.7,0-3.2-1.2-3.8-2.8c0.3,0,0.5,0.1,0.8,0.1c0.4,0,0.7,0,1.1-0.1c-1.9-0.4-3.2-2-3.2-4
			V5.6C1.4,5.9,2,6.1,2.6,6.1C0.8,5,0.3,2.6,1.4,0.7C3.4,3.3,6.5,4.8,9.7,5C9.6,4.7,9.6,4.3,9.6,4c0-2.2,1.8-4,4-4
			c1.1,0,2.2,0.5,2.9,1.3c0.9-0.2,1.8-0.5,2.6-1c-0.3,0.9-0.9,1.7-1.8,2.2c0.8-0.1,1.6-0.3,2.3-0.6C19.1,2.7,18.5,3.4,17.7,4L17.7,4
			z"/>
	</g>
</g>
</svg>
