<svg id="visa" xmlns="http://www.w3.org/2000/svg" width="48.509" height="16.166" viewBox="0 0 48.509 16.166">
  <path id="Path_33" data-name="Path 33" d="M184.8,195.735l2.419-15.335H191l-2.344,15.335Z" transform="translate(-166.965 -179.946)" fill="#3c58bf"/>
  <path id="Path_34" data-name="Path 34" d="M184.8,195.735l3.1-15.335H191l-2.344,15.335Z" transform="translate(-166.965 -179.946)" fill="#293688"/>
  <path id="Path_35" data-name="Path 35" d="M259.567,176.277a8.683,8.683,0,0,0-3.478-.677c-3.78,0-6.5,2.117-6.5,5.166,0,2.287,1.89,3.472,3.4,4.234s1.966,1.27,1.966,1.948c0,1.016-1.21,1.524-2.268,1.524a7.476,7.476,0,0,1-3.629-.847l-.529-.254L248,190.844a11.1,11.1,0,0,0,4.309.847c4.007,0,6.653-2.117,6.653-5.335,0-1.778-.983-3.133-3.251-4.234-1.361-.762-2.192-1.186-2.192-1.948,0-.678.68-1.355,2.192-1.355a6.292,6.292,0,0,1,2.873.593l.378.169.6-3.3Z" transform="translate(-223.991 -175.6)" fill="#3c58bf"/>
  <path id="Path_36" data-name="Path 36" d="M259.567,176.277a8.683,8.683,0,0,0-3.478-.677c-3.78,0-5.821,2.117-5.821,5.166A4.406,4.406,0,0,0,252.99,185c1.512.762,1.966,1.27,1.966,1.948,0,1.016-1.21,1.524-2.268,1.524a7.476,7.476,0,0,1-3.629-.847l-.529-.254L248,190.844a11.1,11.1,0,0,0,4.309.847c4.007,0,6.653-2.117,6.653-5.335,0-1.778-.983-3.133-3.251-4.234-1.361-.762-2.192-1.186-2.192-1.948,0-.678.68-1.355,2.192-1.355a6.292,6.292,0,0,1,2.873.593l.378.169.6-3.3Z" transform="translate(-223.991 -175.6)" fill="#293688"/>
  <path id="Path_37" data-name="Path 37" d="M366.035,180.4c-.907,0-1.587.085-1.966,1.107l-5.67,14.227h4.082l.756-2.556h4.838l.454,2.556h3.629L368.984,180.4ZM364.3,190.623c.227-.767,1.512-4.515,1.512-4.515s.3-.937.529-1.533l.227,1.448s.756,3.834.907,4.686H364.3Z" transform="translate(-323.65 -179.946)" fill="#3c58bf"/>
  <path id="Path_38" data-name="Path 38" d="M366.943,180.4c-.907,0-1.588.085-1.966,1.107L358.4,195.735h4.082l.756-2.556h4.838l.454,2.556h3.629L368.984,180.4ZM364.3,190.623c.3-.852,1.512-4.515,1.512-4.515s.3-.937.529-1.533l.227,1.448s.756,3.834.907,4.686H364.3Z" transform="translate(-323.65 -179.946)" fill="#293688"/>
  <path id="Path_39" data-name="Path 39" d="M56.87,191.849l-.378-2.215A12.005,12.005,0,0,0,51.2,182.9l3.4,13.631h4.082L64.808,181.2H60.725Z" transform="translate(-46.362 -180.671)" fill="#3c58bf"/>
  <path id="Path_40" data-name="Path 40" d="M56.87,191.849l-.378-2.215A12.005,12.005,0,0,0,51.2,182.9l3.4,13.631h4.082L64.808,181.2H61.481Z" transform="translate(-46.362 -180.671)" fill="#293688"/>
  <path id="Path_41" data-name="Path 41" d="M0,180.4l.68.151c4.838,1.134,8.165,4.007,9.45,7.409l-1.361-6.426c-.227-.907-.907-1.134-1.739-1.134Z" transform="translate(0 -179.946)" fill="#ffbc00"/>
  <path id="Path_42" data-name="Path 42" d="M0,180.4H0c4.838,1.134,8.845,4.082,10.13,7.484l-1.285-5.368a1.845,1.845,0,0,0-1.814-1.436Z" transform="translate(0 -179.946)" fill="#f7981d"/>
  <path id="Path_43" data-name="Path 43" d="M0,180.4H0c4.838,1.134,8.845,4.082,10.13,7.484l-.907-2.948a2.666,2.666,0,0,0-1.588-2.192Z" transform="translate(0 -179.946)" fill="#ed7c00"/>
  <g id="Group_21" data-name="Group 21" transform="translate(4.914 1.966)">
    <path id="Path_44" data-name="Path 44" d="M61.374,205.039,58.8,202.1l-1.21,3.283-.3-2.16A12.149,12.149,0,0,0,52,196.4l3.4,13.823h4.082Z" transform="translate(-52 -196.4)" fill="#051244"/>
    <path id="Path_45" data-name="Path 45" d="M188.656,292.526,185.4,289.2l-.6,3.326Z" transform="translate(-171.966 -278.704)" fill="#051244"/>
    <path id="Path_46" data-name="Path 46" d="M254.577,274.8h0c.3.3.454.529.378.832,0,.907-1.21,1.361-2.268,1.361a8.217,8.217,0,0,1-3.629-.756l-.529-.227-.529,3.1a12.258,12.258,0,0,0,4.309.756,7.485,7.485,0,0,0,5.519-1.89Z" transform="translate(-228.982 -265.664)" fill="#051244"/>
    <path id="Path_47" data-name="Path 47" d="M364,229.5h3.553l.756-2.268h4.838l.454,2.268h3.629l-1.285-5.519-4.536-4.385.227,1.21s.756,3.4.907,4.158h-3.175c.3-.756,1.512-4.007,1.512-4.007s.3-.832.529-1.361" transform="translate(-333.635 -215.681)" fill="#051244"/>
  </g>
</svg>
