<?xml version="1.0" standalone="no"?>
<!DOCTYPE svg PUBLIC "-//W3C//DTD SVG 20010904//EN"
 "http://www.w3.org/TR/2001/REC-SVG-20010904/DTD/svg10.dtd">
<svg version="1.0" xmlns="http://www.w3.org/2000/svg"
 width="792.000000pt" height="792.000000pt" viewBox="0 0 792.000000 792.000000"
 preserveAspectRatio="xMidYMid meet">
<metadata>
Created by potrace 1.11, written by Peter Selinger 2001-2013
</metadata>
<g transform="translate(0.000000,792.000000) scale(0.100000,-0.100000)"
fill="#000000" stroke="none">
<path d="M4008 7906 c3 -5 -2 -6 -12 -3 -12 5 -24 0 -37 -15 -23 -29 -25 -48
-1 -22 17 19 34 27 64 28 9 0 15 3 12 7 -2 4 2 9 8 12 7 2 1 4 -14 3 -14 0
-24 -5 -20 -10z"/>
<path d="M4083 7908 c4 -10 2 -18 -3 -18 -6 0 -10 6 -10 13 0 6 -14 -3 -30
-21 -17 -18 -30 -29 -30 -24 0 4 6 14 13 21 10 11 9 13 -6 7 -10 -3 -21 -6
-23 -6 -3 0 -2 -4 1 -10 3 -5 0 -7 -8 -4 -8 3 -20 -3 -28 -12 -13 -16 -12 -17
6 -10 17 6 18 5 7 -6 -11 -11 -17 -9 -33 11 l-19 23 -20 -23 c-15 -19 -21 -21
-28 -11 -7 11 -11 10 -16 -3 -3 -9 -12 -15 -19 -12 -8 3 -14 -1 -14 -8 0 -8 7
-11 16 -8 13 5 13 3 4 -7 -15 -16 -47 -5 -37 12 4 9 2 8 -7 -1 -11 -10 -11
-15 -1 -18 6 -3 9 -10 6 -15 -4 -6 -3 -9 2 -6 5 3 18 2 29 -3 18 -8 17 -8 -5
-6 -16 1 -24 -3 -22 -11 2 -10 -2 -10 -18 -2 -11 6 -20 8 -20 4 0 -3 -7 -1
-15 6 -8 7 -12 17 -8 23 4 6 1 7 -6 3 -7 -5 -10 -11 -7 -14 3 -3 -1 -13 -10
-23 -12 -14 -21 -16 -35 -9 -12 7 -20 7 -24 0 -4 -6 -3 -10 2 -9 39 7 42 -11
8 -45 -14 -14 -25 -20 -25 -15 0 6 10 20 23 30 21 19 21 20 1 10 -12 -6 -24
-8 -28 -6 -3 3 -4 2 -1 -1 2 -4 0 -15 -6 -25 -7 -14 -15 -16 -32 -10 -17 7
-29 3 -50 -15 -16 -13 -23 -24 -18 -24 6 0 14 0 19 0 4 0 7 4 7 9 0 5 3 13 8
17 4 4 6 -4 5 -19 -1 -14 -5 -24 -9 -21 -4 2 -15 -4 -25 -13 -16 -16 -17 -16
-12 -1 5 11 0 18 -12 21 -16 4 -17 1 -9 -20 6 -16 6 -22 -1 -18 -6 3 -10 0
-10 -7 0 -10 -2 -10 -9 1 -7 11 -10 11 -15 0 -3 -8 -3 -4 0 9 3 12 1 22 -5 22
-6 0 -12 -7 -12 -15 -3 -29 -4 -33 -13 -42 -5 -4 -7 -3 -3 2 3 6 -3 17 -15 24
-11 7 -17 8 -13 2 3 -6 2 -11 -3 -11 -5 0 -8 -13 -7 -30 1 -16 -1 -27 -6 -24
-5 3 -7 9 -4 14 7 11 -22 7 -32 -5 -4 -4 -3 -5 3 -2 15 9 27 -20 12 -29 -7 -4
-8 -3 -4 4 4 7 1 12 -8 12 -10 0 -13 -6 -10 -17 4 -11 2 -14 -3 -8 -4 6 -17
12 -27 13 -18 3 -18 2 -5 -14 13 -16 12 -16 -8 -3 -15 9 -19 17 -13 23 14 14
41 16 34 3 -4 -7 -1 -7 7 1 12 11 12 14 -1 22 -8 5 -19 5 -26 0 -6 -6 -14 -6
-18 -2 -4 4 -7 2 -6 -3 1 -6 1 -13 0 -17 -1 -5 -3 -11 -4 -15 -1 -5 -10 -18
-21 -31 -11 -12 -20 -28 -20 -35 0 -7 -9 -12 -20 -12 -11 0 -20 -5 -20 -12 0
-6 -3 -14 -7 -18 -9 -9 -5 16 5 33 5 6 4 12 -2 12 -5 0 -11 8 -13 18 -3 14 -5
13 -10 -6 -4 -15 -2 -20 5 -16 7 3 5 0 -3 -8 -18 -15 -25 -62 -8 -52 7 5 8 2
3 -6 -7 -11 -10 -10 -19 1 -13 17 -56 24 -56 10 0 -6 3 -10 8 -8 4 1 8 -1 10
-6 1 -4 0 -7 -3 -7 -3 0 -9 0 -15 0 -5 0 -10 7 -10 15 0 17 -16 20 -25 6 -3
-6 -14 -8 -25 -6 -11 2 -23 -1 -26 -7 -4 -7 -2 -8 4 -4 7 4 12 3 12 -2 0 -17
-13 -22 -28 -9 -12 9 -12 6 1 -14 15 -22 15 -28 4 -38 -8 -6 -18 -7 -22 -3 -5
4 -5 -2 -1 -13 6 -16 5 -17 -5 -8 -10 10 -9 16 4 31 15 17 16 21 3 31 -12 10
-14 9 -11 -6 4 -25 -6 -38 -16 -22 -7 12 -9 12 -9 0 0 -11 -3 -11 -17 0 -16
12 -17 12 -6 -2 7 -9 10 -19 6 -22 -3 -4 -1 -7 5 -7 5 0 13 6 15 13 4 9 6 9 6
0 2 -21 -22 -26 -36 -8 -15 22 -17 12 -3 -16 8 -13 8 -24 0 -37 -10 -15 -10
-15 -6 3 3 11 -1 31 -8 44 l-13 23 -6 -22 c-5 -19 -8 -20 -29 -10 l-23 11 23
-18 c23 -18 23 -19 4 -36 -10 -9 -22 -14 -27 -10 -4 5 -5 0 -2 -10 6 -15 4
-16 -13 -7 -11 6 -20 13 -20 16 0 3 4 3 9 -1 5 -3 12 -1 16 5 4 6 11 7 17 4 7
-5 8 -2 3 6 -6 9 -4 11 6 5 12 -8 12 -6 0 8 -16 20 -22 22 -18 5 1 -7 -2 -12
-8 -13 -20 -1 -35 -17 -33 -33 2 -9 -3 -16 -9 -15 -7 2 -13 -2 -13 -8 0 -5 -4
-7 -10 -4 -10 6 -13 -3 -13 -37 0 -14 -4 -15 -18 -8 -24 13 -32 13 -23 -2 4
-6 3 -8 -4 -4 -6 3 -17 0 -24 -8 -13 -12 -16 -11 -26 5 -7 10 -8 19 -3 19 5 0
12 -6 14 -12 4 -10 6 -10 6 -1 1 18 -18 26 -33 14 -7 -6 -16 -8 -19 -4 -4 3
-7 1 -7 -5 0 -11 13 -16 32 -13 3 0 5 -7 4 -17 -2 -9 -8 -17 -15 -17 -6 0 -16
-7 -21 -15 -5 -8 -13 -11 -17 -6 -4 5 -2 11 5 13 6 3 10 9 7 13 -3 5 4 7 15 5
12 -2 18 0 14 6 -3 6 -8 8 -11 5 -3 -3 -14 -1 -24 4 -12 7 -20 6 -25 -2 -4 -7
-3 -8 4 -4 7 4 12 1 12 -8 0 -19 -11 -20 -29 -3 -10 10 -12 9 -9 -3 2 -8 -2
-14 -9 -13 -7 2 -10 -4 -6 -12 5 -14 7 -13 18 1 11 16 12 16 19 -1 3 -10 4
-20 1 -23 -3 -3 -5 0 -5 7 0 7 -5 9 -10 6 -6 -4 -8 -10 -5 -15 3 -4 -3 -7 -13
-6 -10 0 -17 -6 -16 -15 1 -9 -4 -16 -11 -16 -8 0 -11 7 -7 15 4 11 1 13 -9 7
-11 -6 -12 -5 -1 6 15 16 16 29 1 29 -5 0 -8 -4 -4 -9 3 -5 -4 -12 -15 -16
-11 -3 -20 -11 -20 -16 0 -6 4 -8 9 -4 5 3 13 0 17 -6 4 -7 3 -9 -4 -5 -6 3
-15 -1 -20 -10 -8 -15 -10 -15 -15 0 -5 11 -3 15 5 10 6 -4 8 -3 5 4 -13 20
-41 6 -42 -22 -2 -32 -10 -42 -19 -21 -3 9 -2 13 4 10 6 -4 7 1 3 11 -5 15 -7
15 -15 0 -5 -9 -6 -21 -2 -28 4 -7 3 -8 -4 -4 -16 10 -15 -6 1 -24 10 -12 9
-12 -4 -2 -12 9 -18 9 -27 0 -7 -7 -12 -8 -12 -3 -1 6 -7 -1 -15 -15 -8 -14
-14 -19 -15 -12 0 6 -5 12 -11 12 -5 0 -8 -4 -5 -8 2 -4 1 -14 -3 -21 -6 -10
-10 -9 -14 3 -7 17 27 45 58 50 17 2 35 24 35 41 -1 6 -5 2 -11 -7 -5 -10 -15
-18 -20 -18 -6 0 -7 5 -3 12 4 7 3 8 -5 4 -6 -4 -9 -11 -6 -16 2 -4 -8 -13
-23 -19 -30 -13 -61 -51 -40 -51 6 0 9 -2 6 -5 -9 -9 -38 7 -38 20 0 8 -4 16
-9 20 -6 3 -6 -7 0 -27 12 -44 10 -59 -3 -28 -6 14 -10 30 -9 35 2 6 -1 6 -6
2 -4 -5 -8 -14 -8 -20 0 -7 -9 -11 -20 -10 -11 1 -14 0 -7 -3 16 -7 16 -25 0
-22 -8 2 -12 -6 -11 -22 2 -22 1 -23 -8 -7 -6 9 -14 15 -20 12 -5 -4 -9 0 -9
7 0 10 -2 10 -9 -1 -5 -8 -7 -20 -4 -28 4 -9 0 -11 -13 -6 -11 4 -15 3 -11 -4
7 -11 -34 -10 -52 1 -5 4 -13 1 -17 -5 -4 -8 -3 -9 4 -5 7 4 12 1 12 -8 0 -10
-7 -13 -26 -10 -22 4 -23 3 -12 -10 8 -8 15 -10 19 -4 3 5 9 9 13 9 19 -3 27
0 22 8 -9 14 23 6 37 -9 10 -12 9 -12 -5 -1 -15 11 -19 11 -24 -3 -3 -9 -10
-13 -15 -10 -5 3 -9 -2 -9 -10 0 -8 -4 -18 -10 -21 -5 -3 -7 0 -4 9 4 10 0 14
-13 11 -10 -1 -16 -9 -15 -16 2 -8 0 -11 -4 -7 -4 4 -19 -1 -33 -11 -14 -10
-34 -21 -43 -24 -12 -4 -16 -13 -12 -24 5 -14 4 -15 -4 -4 -8 11 -11 10 -15
-5 -4 -17 -5 -17 -6 -1 0 10 -5 16 -10 12 -5 -3 -12 -1 -15 4 -4 5 2 8 11 6
23 -3 35 4 27 16 -4 6 -10 7 -17 0 -7 -5 -16 -10 -22 -10 -5 -1 -9 -12 -9 -26
1 -13 -2 -22 -7 -20 -4 3 -9 0 -11 -7 -3 -7 -7 -5 -11 6 -4 9 -3 15 2 11 5 -3
12 -1 15 4 4 5 2 12 -3 15 -5 4 -12 2 -16 -4 -4 -6 -11 -7 -17 -4 -6 4 -8 2
-4 -4 3 -6 2 -13 -4 -17 -5 -3 -10 0 -10 7 0 10 -3 9 -9 -2 -6 -8 -7 -18 -5
-22 3 -4 1 -8 -5 -8 -5 0 -11 3 -14 8 -2 4 -2 1 -1 -5 2 -7 -3 -13 -12 -13
-11 0 -12 -4 -4 -19 18 -34 11 -37 -11 -6 -11 17 -19 23 -17 15 5 -15 -18 -45
-34 -45 -4 0 -7 -4 -5 -10 1 -5 6 -8 12 -7 5 2 7 0 2 -4 -11 -11 -47 -15 -47
-5 0 4 9 16 20 26 11 10 20 14 20 9 0 -5 5 -2 10 6 5 8 10 20 10 25 0 6 -5 3
-10 -5 -5 -8 -10 -10 -10 -5 0 6 -5 3 -10 -5 -5 -8 -13 -15 -17 -15 -13 -1
-69 -34 -57 -35 5 0 18 -6 29 -13 17 -13 17 -14 -2 -12 -11 0 -32 9 -46 18
-19 12 -28 14 -33 5 -4 -7 -3 -8 5 -4 6 4 14 0 17 -8 3 -9 10 -13 15 -10 5 3
9 1 9 -5 0 -17 -18 -22 -24 -6 -9 25 -49 -1 -43 -27 4 -15 3 -18 -5 -10 -12
12 -38 5 -38 -10 0 -6 6 -5 15 2 9 7 15 8 15 2 0 -14 -39 -30 -85 -35 -13 -2
-19 -9 -17 -20 2 -9 -2 -17 -8 -17 -6 0 -8 5 -5 10 3 6 -3 10 -14 10 -12 0
-21 -5 -21 -11 0 -5 -4 -8 -9 -4 -6 3 -8 -5 -5 -19 2 -15 -1 -26 -12 -30 -8
-3 -12 -11 -8 -17 4 -8 3 -9 -5 -5 -8 6 -9 12 -2 20 6 7 7 17 3 21 -4 5 -1 5
5 1 9 -5 11 -2 6 9 -5 13 -7 14 -14 3 -8 -12 -13 -4 -10 15 1 5 -3 6 -9 2 -8
-5 -7 -11 1 -21 10 -12 8 -19 -11 -37 -12 -12 -19 -16 -15 -9 5 10 0 12 -25 8
-32 -5 -54 -16 -31 -16 7 0 9 -5 6 -10 -5 -8 -12 -7 -23 2 -12 10 -14 10 -8 0
4 -7 1 -15 -8 -18 -9 -3 -16 -11 -16 -16 0 -7 5 -6 13 1 8 6 18 7 22 3 5 -4 4
0 0 8 -8 13 -7 13 8 1 21 -17 21 -20 0 -16 -10 1 -25 -3 -33 -11 -15 -13 -19
-14 -46 -14 -8 0 -13 -4 -10 -8 3 -5 -11 -16 -30 -25 -19 -10 -32 -22 -29 -27
3 -6 -1 -7 -9 -4 -9 3 -16 10 -16 16 0 5 5 6 12 2 7 -5 8 -3 3 6 -5 8 -4 11 1
7 17 -10 34 7 24 23 -8 13 -10 13 -10 -1 0 -11 -8 -16 -22 -15 -19 1 -23 -4
-21 -29 0 -16 -1 -24 -4 -17 -2 6 -9 10 -14 7 -5 -4 -6 0 -3 8 3 8 1 18 -5 22
-7 4 -8 0 -4 -11 5 -14 3 -15 -18 -5 -21 11 -22 11 -6 -2 18 -15 24 -32 7 -22
-5 3 -10 2 -10 -4 0 -5 6 -12 13 -14 7 -3 4 -6 -6 -6 -11 -1 -15 -6 -11 -13 4
-6 3 -8 -3 -5 -6 4 -9 18 -8 31 2 19 -1 23 -13 18 -10 -3 -12 -7 -4 -10 7 -2
12 -8 12 -14 0 -6 -7 -8 -15 -4 -8 3 -14 2 -12 -2 1 -4 -2 -7 -8 -7 -5 0 -9 4
-7 8 1 5 -2 6 -8 2 -6 -3 -7 -11 -4 -17 5 -7 1 -9 -9 -5 -12 4 -14 2 -10 -10
5 -12 2 -14 -8 -9 -8 4 -6 1 4 -7 16 -13 15 -15 -15 -28 -18 -8 -36 -13 -40
-11 -8 2 -12 -13 -9 -30 2 -13 -17 -9 -22 5 -3 8 -10 7 -23 -7 -19 -18 -19
-19 1 -12 11 4 16 3 11 -1 -12 -12 -80 -12 -87 -1 -4 6 -10 1 -14 -11 -6 -19
-9 -20 -23 -9 -13 11 -14 11 -7 -2 12 -20 14 -50 3 -50 -5 0 -7 -4 -3 -9 3 -5
1 -12 -4 -15 -5 -4 -13 -1 -17 5 -4 7 -3 10 2 6 5 -3 10 8 10 24 2 26 0 28
-11 12 -7 -9 -11 -24 -10 -32 2 -9 4 -21 4 -28 1 -7 8 -10 18 -6 11 4 14 3 9
-5 -10 -17 -27 -15 -43 6 -12 15 -12 14 -2 -10 7 -15 15 -25 20 -23 4 3 6 -3
4 -12 -2 -10 -4 -22 -4 -26 -1 -5 -5 -5 -11 -2 -6 3 -7 -1 -4 -9 3 -9 10 -16
16 -16 5 0 6 4 3 10 -4 6 1 7 11 3 11 -4 13 -8 6 -11 -7 -2 -12 -10 -12 -18 0
-10 5 -12 13 -8 9 6 9 5 0 -7 -7 -9 -11 -38 -9 -72 2 -41 -1 -57 -10 -57 -12
0 -14 -53 -2 -65 3 -3 4 8 3 25 -1 17 0 28 3 25 4 -3 7 -28 8 -55 1 -40 -2
-50 -15 -50 -14 0 -14 -2 -1 -9 8 -6 19 -7 25 -4 5 3 4 0 -2 -8 -16 -16 -17
-33 -1 -23 7 4 8 3 4 -4 -4 -6 -14 -9 -24 -6 -9 3 -6 -2 8 -11 14 -9 18 -14
10 -12 -10 3 -16 -2 -17 -15 -2 -17 0 -18 15 -6 15 12 16 11 3 -4 -7 -10 -9
-18 -4 -18 13 0 13 -33 0 -41 -14 -9 2 -31 16 -22 8 5 8 2 -1 -9 -7 -8 -11
-22 -9 -29 2 -8 2 -11 0 -6 -3 4 -8 5 -12 3 -4 -3 -7 13 -6 34 1 23 -4 41 -12
44 -9 4 -10 -1 -4 -17 4 -12 7 -33 6 -47 -2 -26 18 -54 30 -42 4 4 1 -3 -6
-16 -12 -19 -12 -24 1 -32 8 -5 18 -6 24 -3 5 3 6 1 2 -6 -6 -9 -14 -8 -32 4
-29 19 -30 15 -4 -15 11 -13 20 -28 20 -33 0 -6 -7 -2 -15 9 -11 13 -14 14
-13 4 2 -8 -3 -14 -10 -12 -8 1 -11 -2 -7 -8 3 -6 10 -8 14 -5 5 2 17 -5 27
-16 13 -15 14 -20 4 -17 -19 4 -20 -23 -1 -45 12 -14 12 -18 2 -15 -7 2 -15
-7 -17 -20 -2 -13 0 -21 4 -18 5 3 9 -1 9 -9 0 -8 -4 -12 -8 -10 -4 3 -9 -10
-11 -29 -3 -27 0 -33 12 -30 8 2 2 -3 -15 -11 -19 -10 -22 -14 -10 -12 15 3
21 -1 21 -15 0 -14 -6 -18 -19 -14 -14 3 -16 2 -7 -9 6 -8 19 -12 28 -9 9 2 8
0 -4 -6 -14 -8 -21 -21 -21 -41 0 -30 12 -41 15 -14 1 8 3 22 4 30 2 23 17 18
15 -5 -1 -11 -4 -20 -8 -20 -11 0 -4 -29 9 -42 7 -7 12 -16 12 -22 0 -5 -7 -1
-15 10 -15 18 -15 18 -13 -11 1 -16 7 -36 13 -44 7 -11 7 -13 -2 -7 -8 4 -13
2 -13 -4 0 -6 -5 -8 -12 -4 -7 5 -8 3 -2 -7 13 -22 14 -43 1 -52 -8 -6 -6 -7
6 -3 10 3 15 2 12 -3 -3 -5 -1 -13 5 -16 8 -5 8 -11 1 -19 -6 -7 -8 -16 -4
-20 4 -3 7 -15 8 -26 1 -15 -1 -17 -12 -8 -11 9 -12 7 -7 -7 5 -11 3 -16 -3
-12 -11 7 -11 -22 1 -42 5 -8 4 -16 -4 -21 -8 -5 -7 -9 5 -13 9 -4 14 -3 10 2
-6 11 22 8 30 -2 3 -4 2 -5 -2 -2 -3 3 -12 0 -20 -6 -10 -9 -11 -15 -2 -26 9
-11 9 -17 -1 -26 -7 -7 -10 -7 -7 -2 3 6 -1 21 -10 35 -8 14 -12 17 -9 8 3 -9
0 -19 -7 -22 -7 -2 -4 -5 7 -5 16 -1 17 -3 5 -18 -8 -9 -9 -14 -3 -10 7 4 15
-1 19 -10 3 -10 1 -19 -4 -21 -6 -2 -8 -8 -5 -13 3 -6 12 -5 22 3 15 12 16 11
4 -4 -8 -9 -10 -23 -6 -30 4 -7 -3 -4 -16 7 l-23 20 18 -28 c12 -19 21 -24 30
-17 8 7 12 5 12 -5 0 -8 -4 -12 -9 -9 -4 3 -8 0 -8 -5 0 -17 4 -26 11 -24 3 1
6 -4 6 -12 0 -10 -5 -10 -23 3 -17 13 -20 20 -11 31 9 12 9 13 0 7 -8 -4 -13
-2 -13 8 0 8 -4 18 -10 21 -7 4 -7 -3 0 -19 7 -19 6 -26 -3 -26 -7 0 -8 -3 -2
-8 13 -9 19 -29 19 -72 1 -25 -3 -34 -13 -32 -11 2 -12 0 -3 -10 12 -15 11
-35 -2 -56 -5 -8 -3 -12 6 -10 7 2 13 -4 13 -12 0 -8 -7 -14 -15 -12 -13 3
-13 1 -1 -10 11 -10 14 -10 18 0 7 19 23 14 17 -5 -5 -15 -3 -15 10 1 9 11 16
16 16 12 0 -4 -10 -20 -22 -34 -11 -15 -19 -20 -16 -11 4 9 1 16 -7 16 -10 0
-11 -5 -5 -17 6 -11 5 -21 -2 -28 -7 -7 -9 -15 -5 -19 4 -4 13 -1 20 7 10 10
9 11 -2 5 -10 -6 -12 -4 -6 4 5 9 13 7 29 -8 12 -12 26 -18 31 -14 4 5 5 2 1
-5 -6 -11 -12 -10 -29 5 -20 17 -20 17 -14 -1 6 -14 4 -17 -8 -12 -10 4 -14 2
-9 -5 4 -6 0 -15 -7 -20 -10 -6 -11 -9 -1 -9 6 0 12 -8 12 -17 0 -15 -2 -16
-10 -3 -7 12 -9 10 -7 -7 1 -14 5 -19 12 -14 13 11 46 10 39 -1 -3 -5 -9 -6
-14 -3 -5 3 -11 1 -14 -4 -11 -16 14 -23 32 -9 15 11 15 11 5 -3 -7 -9 -9 -19
-5 -24 4 -4 -3 -2 -16 4 -13 7 -28 10 -35 7 -9 -3 -8 -5 1 -5 8 -1 10 -6 5
-13 -11 -19 -13 -39 -2 -32 5 3 8 -6 7 -20 -1 -15 -6 -26 -10 -26 -4 0 -8 -4
-8 -9 0 -6 8 -8 18 -6 10 2 25 -1 33 -7 11 -8 10 -9 -4 -4 -11 3 -17 1 -16 -7
3 -27 -2 -36 -18 -32 -10 3 -5 -1 11 -8 22 -11 25 -15 12 -20 -9 -4 -16 -2
-16 3 0 6 -4 10 -8 10 -5 0 -9 -7 -9 -15 0 -8 5 -11 10 -8 5 3 7 0 5 -8 -3 -8
-11 -13 -17 -12 -6 2 -11 -2 -11 -7 0 -6 5 -10 11 -10 5 0 7 -6 3 -12 -5 -9
-3 -9 9 1 9 7 14 18 11 23 -4 6 5 2 20 -7 30 -20 35 -31 7 -15 -16 8 -21 6
-26 -10 -4 -12 -11 -17 -18 -13 -9 5 -9 3 -1 -8 6 -8 13 -20 15 -27 3 -8 9 -4
18 9 11 19 11 21 -3 16 -10 -4 -13 -1 -9 9 4 11 8 12 19 3 11 -9 11 -15 3 -25
-6 -7 -7 -19 -3 -25 4 -8 3 -9 -4 -5 -7 4 -12 3 -12 -3 0 -6 -8 -8 -17 -5 -14
5 -15 4 -4 -4 8 -6 26 -8 40 -6 22 3 23 2 8 -6 -20 -13 -22 -27 -4 -33 6 -2 4
-3 -6 -1 -13 2 -17 -2 -13 -12 5 -13 -6 -19 -27 -15 -5 1 -6 -3 -3 -8 4 -5 0
-12 -6 -15 -7 -3 -4 -4 6 -3 10 1 21 -4 23 -11 3 -8 -1 -10 -14 -5 -17 7 -17
6 0 -11 18 -18 24 -41 8 -32 -5 4 -7 -4 -3 -16 3 -13 1 -19 -6 -15 -11 8 -11
-11 1 -30 4 -7 0 -13 -10 -16 -13 -3 -12 -5 5 -6 13 0 21 -5 17 -10 -3 -5 0
-13 6 -17 7 -4 9 -3 6 3 -3 5 0 10 8 10 10 0 12 -4 5 -12 -6 -7 -5 -16 2 -23
9 -9 9 -15 0 -24 -15 -15 -15 -25 1 -31 6 -2 5 -3 -3 -2 -9 1 -24 -10 -35 -24
-18 -26 -18 -26 1 -10 18 15 20 15 39 -4 l20 -20 -21 11 c-26 13 -48 -5 -35
-27 6 -9 11 -10 15 -2 4 6 2 11 -5 11 -7 0 -10 2 -7 5 8 8 38 -6 38 -17 0 -5
-5 -6 -11 -3 -6 4 -9 0 -7 -11 2 -11 10 -22 18 -26 13 -5 12 -7 -2 -7 -9 -1
-24 6 -33 15 -9 9 -19 14 -22 10 -4 -3 -3 -6 2 -6 4 0 1 -8 -6 -17 -12 -16
-12 -17 2 -6 18 14 30 8 23 -12 -3 -7 0 -16 5 -20 6 -3 9 -11 5 -16 -3 -6 2
-19 12 -30 9 -10 15 -22 11 -25 -9 -9 -28 6 -22 17 4 5 1 9 -4 9 -6 0 -11 -7
-11 -15 0 -8 5 -15 11 -15 5 0 7 -5 4 -10 -5 -8 -12 -7 -23 2 -15 12 -16 11
-3 -4 11 -14 11 -18 1 -18 -8 0 -10 -3 -7 -6 4 -4 13 -1 22 6 10 9 15 9 16 1
3 -20 4 -26 12 -38 4 -6 3 -14 -3 -18 -6 -4 -8 -10 -5 -15 3 -5 0 -12 -6 -16
-8 -5 -9 -3 -4 7 8 12 6 12 -9 0 -11 -9 -13 -18 -7 -24 6 -6 2 -16 -12 -29
l-22 -19 28 17 c27 16 27 16 27 -10 0 -20 -4 -24 -17 -20 -11 4 -14 2 -8 -3
16 -12 15 -63 -1 -63 -8 0 -14 -4 -14 -10 0 -5 7 -7 15 -4 11 5 13 2 9 -10 -3
-9 -1 -16 5 -16 6 0 11 -14 11 -31 0 -16 -4 -28 -9 -25 -5 3 -14 -1 -21 -9 -9
-10 -9 -15 -1 -15 6 0 11 5 11 11 0 5 5 7 10 4 7 -4 6 -13 -1 -26 -11 -22 -7
-35 9 -25 5 3 8 17 7 31 -2 16 1 23 8 18 6 -4 8 0 4 10 -4 12 -1 15 15 12 11
-3 23 -7 27 -11 3 -4 -1 -5 -9 -2 -8 3 -20 -2 -27 -11 -16 -21 -17 -39 -1 -23
15 15 28 16 28 2 0 -5 -6 -9 -12 -7 -7 1 -12 -6 -12 -15 1 -10 -4 -14 -12 -11
-8 3 -14 0 -14 -6 0 -9 -6 -9 -22 -1 l-23 11 22 -17 c19 -13 21 -20 11 -37 -8
-16 -8 -22 1 -25 6 -2 11 -8 11 -13 0 -6 -4 -8 -8 -5 -4 2 -14 0 -22 -6 -13
-8 -13 -9 0 -5 9 3 24 -1 34 -8 10 -8 25 -11 34 -8 13 4 13 2 -2 -9 -10 -8
-16 -20 -12 -26 3 -6 1 -14 -5 -17 -17 -11 -21 2 -8 27 6 12 8 20 4 16 -5 -4
-14 -3 -22 4 -10 8 -17 8 -26 -1 -9 -10 -8 -11 8 -5 l20 7 -20 -24 -20 -24 21
18 c22 18 22 18 20 -7 -1 -19 -5 -25 -16 -21 -13 4 -13 4 0 -8 23 -18 25 -41
3 -33 -15 6 -15 5 2 -12 11 -11 23 -18 27 -15 4 2 5 -3 2 -12 -5 -11 -2 -14
12 -9 18 5 18 5 2 -6 -21 -13 -24 -31 -5 -26 6 1 8 1 4 -2 -4 -2 0 -10 10 -18
17 -13 17 -14 -1 -7 -11 4 -17 2 -13 -3 3 -6 2 -16 -2 -23 -6 -9 -11 -10 -15
-2 -4 6 -1 11 6 11 9 0 9 3 -2 10 -11 7 -11 10 -2 10 7 0 10 4 7 10 -4 6 -11
5 -19 -3 -10 -9 -11 -14 -2 -19 7 -5 6 -8 -3 -8 -11 0 -10 -4 4 -13 12 -10 14
-16 7 -21 -7 -4 -12 -2 -12 5 0 7 -3 10 -6 6 -3 -3 -2 -12 2 -19 5 -7 9 -17 9
-23 0 -5 8 -9 18 -9 14 2 15 -1 6 -12 -6 -7 -8 -18 -4 -24 3 -5 1 -10 -4 -10
-6 0 -11 -5 -11 -11 0 -5 5 -7 10 -4 6 3 10 1 10 -4 0 -6 -5 -11 -12 -11 -6 0
-8 -3 -5 -6 4 -4 13 -1 22 6 12 10 15 10 15 -4 0 -9 5 -16 11 -16 5 0 7 -4 4
-10 -3 -5 1 -10 9 -10 9 0 16 -5 16 -12 0 -6 3 -8 6 -5 4 4 1 13 -6 22 -8 10
-9 15 -1 15 6 0 11 -5 11 -11 0 -5 4 -8 9 -5 4 3 6 -7 4 -22 -3 -25 -3 -26 6
-4 12 26 23 30 15 5 -5 -15 -3 -15 10 1 9 11 16 15 16 9 0 -15 -28 -43 -42
-43 -6 0 -8 -3 -5 -6 4 -4 18 1 32 10 26 17 26 17 16 -3 -8 -14 -8 -22 1 -27
6 -4 8 -3 4 4 -10 16 13 25 30 12 9 -9 11 -17 5 -24 -7 -8 -2 -12 17 -13 17
-1 21 1 12 5 -17 8 -25 32 -11 32 5 0 11 -6 14 -12 3 -10 8 -9 22 2 17 13 18
13 10 0 -13 -21 -15 -41 -4 -34 5 3 9 0 9 -5 0 -6 7 -11 15 -11 8 0 15 5 15
11 0 6 7 4 15 -5 19 -18 19 -23 0 -23 -8 0 -12 4 -9 9 3 4 -2 5 -12 1 -15 -5
-14 -7 2 -17 11 -6 28 -11 39 -11 11 -1 19 -7 17 -14 -1 -7 2 -10 9 -5 8 5 10
2 7 -8 -4 -8 -1 -15 6 -15 6 0 12 8 12 18 0 10 -4 15 -8 13 -4 -3 -5 2 -1 11
4 12 8 13 13 5 4 -7 10 -8 12 -4 3 5 3 3 2 -4 -2 -7 3 -15 11 -18 8 -4 15 -11
15 -16 0 -6 -6 -5 -15 2 -10 9 -15 9 -15 1 0 -6 5 -11 11 -11 5 0 7 -6 3 -12
-4 -7 3 -4 16 7 13 11 20 14 16 8 -4 -7 -9 -22 -11 -33 -3 -17 -1 -19 16 -10
24 13 25 21 1 13 -13 -5 -14 -3 -5 7 14 15 34 4 31 -18 -2 -11 4 -17 17 -17
11 0 19 -6 17 -13 -1 -8 2 -11 7 -8 5 4 12 2 16 -4 8 -13 25 -3 25 13 0 8 -3
8 -9 -1 -6 -11 -13 -8 -28 12 -11 14 -23 22 -27 19 -3 -3 -6 -1 -6 6 0 7 6 11
13 8 6 -2 20 0 31 5 14 8 17 7 11 -3 -6 -9 -3 -11 9 -6 10 4 15 3 11 -4 -4 -5
-16 -7 -28 -3 -18 5 -20 4 -10 -7 15 -15 43 -21 43 -8 0 5 5 9 11 9 5 0 8 -4
4 -9 -3 -5 -1 -12 4 -16 7 -4 7 -15 1 -31 -6 -15 -6 -23 -1 -19 5 3 12 1 15
-4 3 -4 24 -6 46 -4 23 3 40 1 40 -5 0 -6 -10 -8 -23 -6 -22 5 -22 5 0 -5 12
-5 26 -17 31 -26 8 -16 9 -16 15 -1 5 11 3 15 -5 10 -7 -5 -8 -3 -3 6 6 9 4
11 -5 5 -9 -6 -11 -4 -5 5 6 10 13 8 28 -11 21 -26 33 -30 59 -17 13 6 15 4
11 -12 -3 -12 0 -20 6 -20 7 0 9 5 5 12 -4 6 -3 8 4 4 6 -3 9 -15 7 -26 -2
-12 0 -18 6 -15 5 4 9 1 9 -4 0 -6 8 -11 18 -11 15 0 15 -2 2 -11 -12 -8 -12
-10 -1 -7 8 2 15 12 17 22 1 10 8 24 15 30 9 8 10 8 5 -2 -12 -21 -16 -72 -5
-72 6 0 7 5 3 12 -5 7 -3 8 5 4 7 -5 10 -15 7 -23 -4 -8 -1 -11 5 -8 6 4 8 13
5 21 -6 16 10 29 19 14 4 -6 11 -8 16 -4 5 3 9 2 8 -3 -3 -18 1 -33 10 -33 5
0 7 10 4 23 -4 20 -4 20 9 -3 9 -16 21 -24 34 -22 10 2 16 1 13 -2 -12 -12
-50 -15 -43 -4 4 7 2 8 -5 4 -6 -4 -9 -12 -5 -17 3 -5 9 -7 14 -4 5 3 16 -5
26 -17 12 -18 15 -19 10 -4 -5 15 -3 17 11 11 10 -4 26 -7 36 -7 9 0 17 -3 17
-7 0 -5 -10 -8 -22 -7 -11 0 -22 -5 -24 -12 -1 -7 0 -8 3 -2 3 8 9 7 19 -1 8
-6 14 -8 14 -3 0 4 6 0 13 -10 12 -16 13 -16 13 3 0 11 -4 17 -9 14 -5 -3 -4
4 2 14 6 11 8 23 6 27 -3 3 -2 3 2 0 4 -3 8 -13 8 -22 0 -9 6 -16 13 -14 8 1
11 -2 7 -8 -6 -9 7 -14 28 -11 4 0 6 -5 5 -11 -2 -7 4 -12 12 -10 12 3 11 0
-2 -15 -13 -14 -14 -22 -7 -33 9 -13 10 -12 6 2 -8 24 3 29 21 11 11 -10 17
-12 20 -4 2 6 13 16 25 23 20 10 21 10 7 -6 -8 -10 -15 -28 -17 -39 -2 -16 -1
-18 6 -8 5 7 14 11 19 7 13 -8 35 28 24 39 -4 5 -1 5 6 1 9 -5 9 -12 1 -27 -7
-14 -7 -24 0 -33 6 -7 7 -16 3 -20 -4 -4 -2 -7 3 -6 6 1 13 1 18 0 4 -1 13 -3
20 -4 6 -1 11 -8 9 -16 -2 -10 0 -11 10 -3 19 15 50 24 43 13 -7 -11 29 -32
39 -23 3 3 6 1 6 -6 0 -6 -7 -11 -16 -9 -10 2 -19 -4 -21 -12 -4 -12 -3 -12 5
-1 8 11 10 11 14 0 4 -12 7 -12 21 0 12 9 17 10 17 2 0 -8 8 -10 22 -6 16 6
20 4 15 -8 -4 -11 0 -15 14 -14 12 1 17 7 14 15 -2 7 0 10 5 7 6 -3 10 -13 10
-21 0 -8 4 -12 10 -9 5 3 10 1 10 -4 0 -13 -6 -14 -29 -2 -11 6 -23 6 -32 0
-12 -8 -12 -10 1 -8 29 3 39 -1 36 -13 -1 -7 -1 -10 1 -5 3 4 9 7 14 7 6 0 8
-4 5 -9 -3 -4 4 -17 16 -27 12 -11 18 -13 14 -6 -4 6 -3 12 3 12 5 0 12 -8 14
-17 4 -17 5 -17 6 -1 1 18 -32 42 -42 31 -4 -3 -4 5 -2 17 5 28 18 42 13 15
-2 -15 2 -20 18 -19 13 0 21 -6 20 -14 -1 -8 5 -17 13 -20 8 -3 11 0 7 7 -5 7
-1 9 8 5 9 -3 16 -10 16 -16 0 -5 -4 -7 -8 -4 -10 6 -9 -40 1 -50 3 -4 5 3 2
15 -2 11 0 21 4 21 14 0 41 -36 34 -45 -5 -4 -2 -5 5 -1 7 4 10 11 7 15 -2 5
2 16 9 26 10 14 15 15 21 5 5 -9 4 -11 -3 -6 -7 4 -12 4 -13 -1 0 -4 -2 -18
-3 -31 -2 -13 2 -26 7 -29 6 -3 7 -1 3 5 -4 7 -3 12 3 12 6 0 9 6 7 13 -1 6
-1 9 1 4 3 -4 9 -5 14 -1 5 3 8 0 7 -7 -2 -8 8 -13 29 -12 18 0 30 -4 27 -8
-3 -5 5 -9 18 -10 23 -1 23 -1 -2 -9 -14 -4 -19 -8 -12 -9 6 -1 12 -6 12 -12
0 -5 -5 -7 -12 -3 -7 4 -8 3 -4 -5 4 -6 11 -9 16 -6 5 3 11 1 15 -4 3 -6 12
-8 19 -5 8 3 17 0 22 -7 5 -8 3 -10 -7 -5 -8 4 -6 1 4 -8 20 -15 51 -11 41 6
-4 6 -9 6 -14 -2 -5 -8 -9 -6 -12 7 -4 13 0 19 13 19 10 0 16 -2 14 -5 -3 -2
3 -13 12 -24 10 -11 13 -17 6 -14 -6 4 -15 2 -19 -4 -4 -7 -3 -9 4 -5 6 3 15
-2 21 -11 6 -10 11 -12 11 -5 0 6 10 12 21 12 16 0 20 -5 16 -19 -5 -22 8 -49
20 -38 4 5 2 12 -5 16 -10 6 -10 11 3 21 13 11 14 10 8 -6 -6 -17 -5 -18 12
-4 11 9 16 10 11 3 -6 -12 5 -18 27 -14 4 0 7 -3 7 -9 0 -13 -6 -13 -33 1 -20
9 -21 9 -4 -4 14 -11 15 -16 5 -20 -10 -4 -10 -6 0 -6 6 -1 22 9 34 21 15 15
20 17 15 5 -9 -22 -15 -44 -10 -35 2 4 12 4 21 1 13 -4 14 -3 3 5 -7 5 -9 12
-4 15 5 3 14 -3 21 -13 12 -20 0 -36 -18 -25 -5 3 -10 1 -10 -4 0 -6 7 -11 16
-11 8 0 13 -4 10 -8 -3 -5 1 -9 9 -9 9 0 11 5 6 11 -4 7 0 18 11 29 10 9 19
13 19 7 1 -5 2 -16 3 -22 1 -7 7 -12 14 -10 7 1 12 -2 12 -8 0 -15 -11 -12
-32 7 -17 15 -18 15 -13 1 4 -9 13 -19 20 -22 18 -7 55 4 55 17 0 6 3 8 6 5 3
-3 0 -15 -7 -25 -8 -14 -9 -25 -2 -37 9 -17 11 -17 16 -2 4 10 3 15 -3 11 -6
-3 -10 1 -10 10 0 13 4 14 20 5 11 -6 18 -15 14 -21 -9 -15 16 -41 30 -30 14
11 66 11 66 0 0 -4 -9 -6 -20 -4 -11 2 -20 -1 -20 -7 0 -5 6 -8 14 -5 8 3 21
-2 30 -12 19 -21 21 -35 4 -25 -7 4 -10 3 -5 -1 4 -5 17 -10 28 -12 17 -3 19
-1 7 12 -34 37 -38 44 -28 50 6 3 10 2 10 -3 0 -6 11 -20 24 -33 13 -13 22
-30 19 -38 -3 -10 -1 -12 4 -6 4 6 19 16 33 24 23 13 24 13 10 -3 -12 -16 -12
-19 3 -28 10 -5 15 -13 12 -18 -3 -5 -1 -11 4 -14 5 -4 12 -2 16 4 4 6 11 8
16 4 6 -4 5 -12 -3 -22 -10 -14 -10 -15 2 -4 12 10 16 8 27 -10 7 -13 12 -17
13 -10 0 6 5 12 11 12 5 0 7 -4 4 -10 -4 -6 1 -7 11 -3 14 5 12 9 -11 21 -16
8 -37 23 -48 33 -11 10 -25 16 -30 12 -6 -4 -7 -1 -2 7 5 9 4 11 -3 6 -7 -4
-12 -2 -12 3 0 14 17 14 25 0 4 -6 14 -8 23 -4 9 3 13 3 9 -1 -9 -10 11 -34
26 -30 7 1 8 1 3 -2 -5 -3 6 -13 25 -22 25 -13 39 -15 53 -8 13 7 16 7 12 -1
-7 -12 30 -35 43 -26 5 3 7 -4 4 -15 -6 -21 -25 -28 -21 -8 2 7 -3 12 -9 10
-7 -1 -13 3 -13 10 0 6 -3 8 -6 5 -4 -3 -15 -2 -25 3 -12 7 -20 6 -25 -2 -4
-7 -3 -8 4 -4 7 4 13 2 13 -3 1 -6 2 -15 3 -20 0 -5 5 -13 10 -18 5 -4 6 -3 2
4 -12 21 14 25 39 5 16 -13 21 -22 13 -24 -9 -3 -9 -6 0 -12 7 -4 12 -2 12 3
0 6 14 11 31 11 19 0 28 4 23 11 -3 6 8 3 25 -5 22 -12 29 -21 24 -33 -6 -14
-8 -14 -16 5 -11 25 -15 26 -37 12 -12 -8 -11 -10 6 -10 22 0 39 -24 28 -41
-3 -5 0 -9 5 -9 6 0 11 7 11 15 0 9 9 14 24 13 22 -2 27 -28 4 -28 -5 0 -6 5
-2 12 4 7 3 8 -4 4 -18 -11 -14 -23 9 -29 12 -3 18 -10 14 -16 -3 -6 -4 -11
-1 -11 3 0 10 9 16 20 9 16 8 19 -6 13 -12 -4 -15 -3 -10 5 10 17 33 15 40 -4
3 -8 11 -12 17 -8 8 4 9 3 5 -4 -4 -7 -2 -12 4 -12 6 0 8 -5 4 -12 -4 -6 -3
-8 4 -4 6 3 13 2 17 -4 3 -5 11 -10 16 -10 5 0 1 10 -11 22 -11 12 -20 27 -19
32 0 6 3 5 6 -2 4 -10 8 -10 21 0 15 11 15 11 5 -3 -16 -19 2 -40 26 -32 9 4
6 -3 -8 -15 -13 -12 -19 -22 -13 -22 7 0 9 -7 5 -17 -5 -14 -3 -13 13 3 13 12
16 22 10 26 -8 5 -7 8 1 8 6 0 15 -5 18 -10 5 -8 12 -7 23 2 10 7 14 8 10 4
-4 -5 1 -21 12 -36 11 -15 16 -31 12 -35 -4 -5 -1 -5 6 -1 6 4 12 2 12 -4 0
-7 7 -5 16 4 18 18 38 11 30 -10 -3 -8 -3 -21 0 -29 5 -13 8 -13 21 0 16 16
33 12 33 -8 0 -7 -4 -6 -11 3 -9 13 -10 13 -6 0 2 -8 8 -15 13 -16 20 -2 44
-17 39 -24 -6 -10 22 -7 32 4 4 4 3 6 -2 5 -13 -4 -55 19 -55 30 0 5 7 12 16
15 15 6 15 4 3 -10 -12 -15 -11 -16 11 -10 19 6 21 5 10 -3 -8 -6 -13 -11 -10
-12 34 -6 43 -8 48 -13 3 -3 0 -6 -6 -6 -6 0 -9 -7 -6 -15 7 -17 25 -21 22 -4
-2 6 4 14 12 16 12 4 12 3 2 -5 -11 -7 -11 -10 2 -15 8 -3 18 -1 22 5 9 15 34
-19 28 -37 -3 -7 5 -20 18 -29 12 -9 18 -16 13 -16 -5 0 -4 -5 2 -11 8 -8 17
-7 32 3 12 8 18 18 14 21 -10 11 -25 8 -18 -3 4 -6 -1 -7 -11 -3 -15 6 -15 7
0 15 22 12 51 -9 36 -27 -7 -8 -5 -12 5 -12 8 0 12 4 9 9 -3 4 -1 8 5 8 5 0
13 -5 16 -10 5 -8 11 -7 21 1 17 14 18 36 2 42 -7 3 -3 4 9 4 12 -1 20 -4 18
-7 -2 -3 1 -12 7 -20 8 -12 9 -11 4 4 -5 14 -3 17 11 12 14 -6 15 -4 6 5 -6 6
-9 18 -6 25 6 16 33 19 33 4 0 -5 10 -14 23 -20 21 -10 21 -10 3 4 -15 13 -16
17 -5 33 17 22 40 28 33 8 -4 -8 -10 -13 -14 -10 -5 3 -12 0 -16 -6 -4 -8 -3
-9 4 -5 7 4 12 1 13 -6 0 -7 5 -3 11 10 6 12 17 22 25 22 7 0 13 5 13 11 0 5
-5 7 -12 3 -7 -5 -8 -3 -4 5 5 7 15 10 23 7 9 -4 11 -2 7 6 -5 8 -2 9 10 5 13
-5 16 -3 14 11 -2 9 -10 16 -17 14 -7 -1 -10 2 -6 8 11 18 45 -12 40 -35 -4
-12 0 -9 10 8 12 20 21 26 35 22 13 -4 20 0 25 15 4 11 10 18 14 16 4 -3 8 2
8 11 0 12 -5 10 -19 -7 -20 -25 -69 -35 -61 -13 4 9 10 10 24 2 18 -9 29 4 12
14 -5 2 -3 2 4 1 11 -3 35 19 30 27 -1 3 6 -4 16 -14 10 -12 17 -14 17 -6 0 7
3 9 7 6 3 -4 12 -2 20 4 7 6 13 8 13 3 0 -5 5 -2 10 6 8 12 12 13 19 2 7 -11
9 -11 14 1 3 8 0 20 -6 26 -6 6 -7 11 -3 11 5 0 2 8 -5 17 -8 10 -9 14 -2 10
7 -4 16 0 22 10 9 14 10 12 6 -14 -3 -22 -1 -33 7 -33 6 0 8 3 5 7 -4 3 1 12
11 20 9 8 11 12 5 8 -7 -3 -13 -1 -13 5 0 7 6 10 13 7 6 -2 11 -15 10 -28 -2
-23 -2 -23 13 4 9 16 13 35 10 43 -3 9 -1 12 4 9 6 -3 10 -13 10 -21 0 -16 16
-19 25 -4 4 6 10 8 15 5 5 -3 12 -1 15 5 4 6 3 10 -2 9 -20 -3 -22 2 -6 21 10
11 23 20 30 20 7 0 13 4 13 9 0 5 -11 8 -25 5 -14 -2 -25 -1 -25 3 0 5 14 9
30 9 20 1 30 -3 30 -13 0 -10 6 -13 16 -9 9 3 18 6 20 6 2 0 4 5 4 11 0 8 -6
7 -17 -2 -10 -7 -15 -9 -11 -5 4 5 2 16 -5 25 -10 14 -10 14 4 3 15 -11 20 -9
40 15 12 15 19 20 16 11 -7 -19 19 -33 29 -16 4 7 2 14 -4 16 -17 5 -15 19 3
19 8 0 15 -4 15 -9 0 -4 8 -8 18 -8 10 0 13 3 6 8 -6 4 -16 18 -23 32 -11 22
-10 23 2 8 8 -10 18 -14 22 -10 5 4 5 1 1 -5 -4 -7 -3 -13 3 -13 5 0 12 6 15
13 3 8 9 6 20 -7 9 -11 16 -14 16 -7 0 7 4 10 9 6 5 -3 13 0 17 6 4 8 3 9 -4
5 -7 -4 -12 -3 -12 2 0 16 13 22 27 11 9 -9 13 -8 13 0 0 6 -5 11 -11 11 -5 0
-7 5 -4 10 4 6 10 8 15 5 9 -6 8 14 -2 31 -4 6 -1 11 7 11 8 0 12 -4 9 -9 -3
-4 5 -8 17 -8 18 0 19 2 9 15 -11 13 -10 14 4 9 12 -5 15 -2 10 12 -3 11 -2
15 3 9 11 -14 47 -19 38 -6 -4 7 0 8 10 5 13 -5 13 -9 3 -23 -12 -14 -11 -14
4 -3 18 14 14 42 -6 42 -6 0 -4 5 4 10 8 5 20 10 25 10 6 0 5 -3 -1 -8 -7 -5
-5 -14 9 -27 11 -11 17 -14 13 -7 -5 7 -9 24 -10 37 -2 17 1 22 12 17 10 -3
13 -1 8 6 -3 6 -2 13 3 16 16 11 22 -11 6 -24 -8 -7 -15 -17 -15 -22 0 -5 7
-2 16 6 8 9 20 14 25 11 5 -4 6 2 2 11 -4 12 -3 15 5 10 7 -4 12 -15 13 -24 0
-10 3 -12 5 -5 8 17 -15 55 -28 47 -7 -5 -8 -2 -3 5 5 9 14 6 32 -10 20 -20
25 -21 33 -9 13 20 13 43 0 35 -6 -4 -8 -10 -5 -15 3 -5 1 -11 -5 -15 -5 -3
-10 0 -10 9 0 8 -3 16 -7 19 -5 2 -2 2 5 0 8 -2 16 6 19 17 5 18 25 30 22 13
-4 -22 3 -33 19 -32 10 0 12 3 5 6 -7 2 -13 9 -13 14 0 5 10 4 23 -2 19 -11
20 -10 10 2 -13 16 0 49 14 36 4 -5 2 -12 -6 -16 -10 -6 -9 -10 4 -15 9 -3 13
-11 9 -17 -4 -7 -3 -9 3 -6 6 4 9 20 8 37 -1 16 1 27 6 25 4 -3 10 -1 14 5 6
9 -8 14 -28 11 -5 -1 -6 3 -2 9 4 7 12 7 25 0 11 -6 31 -8 45 -6 14 3 25 0 25
-5 0 -5 8 -1 18 8 11 10 17 22 14 27 -2 4 -7 4 -11 0 -10 -15 -28 -14 -28 1 0
7 6 11 14 8 7 -3 13 0 13 6 0 6 5 11 11 11 5 0 7 -4 4 -10 -3 -5 -1 -10 4 -10
6 0 11 5 11 10 0 6 5 10 11 10 5 0 7 -5 4 -10 -3 -6 -1 -10 4 -10 6 0 11 5 11
11 0 5 5 7 12 3 7 -4 8 -3 4 5 -4 6 -13 8 -19 5 -7 -4 -9 -4 -5 1 4 4 2 15 -5
23 -10 13 -9 14 1 8 7 -4 15 -1 18 9 6 14 8 13 21 -5 8 -11 18 -18 23 -15 4 3
10 -1 13 -7 5 -12 7 1 8 49 0 12 8 28 17 35 15 12 16 11 3 -5 -8 -9 -11 -21
-7 -24 4 -4 11 -1 16 7 6 8 10 11 10 6 0 -5 7 -3 15 4 9 7 14 19 11 27 -4 11
0 10 23 -2 29 -14 29 -14 26 10 -1 14 2 28 8 32 6 4 7 1 2 -7 -6 -10 -4 -12 8
-7 9 3 19 2 22 -4 4 -5 11 -6 17 -3 6 4 14 0 20 -7 7 -11 8 -10 6 3 -2 9 6 23
17 32 20 14 20 14 0 37 -16 19 -16 21 -2 10 14 -11 21 -11 29 -3 15 15 28 15
28 2 0 -6 -3 -9 -7 -8 -8 3 -13 -5 -13 -22 0 -5 9 -1 20 10 12 12 19 24 16 28
-3 5 -1 14 4 22 8 13 11 13 22 1 11 -11 11 -13 -1 -6 -10 6 -12 4 -6 -5 6 -9
4 -11 -6 -5 -12 8 -12 6 0 -8 16 -20 22 -22 19 -5 -2 8 5 12 17 11 11 -1 14 0
8 3 -21 9 -15 28 18 60 27 25 32 27 42 13 7 -8 24 -15 39 -15 21 0 25 3 16 13
-7 9 -6 14 5 19 9 3 21 3 26 -1 7 -3 8 0 5 9 -3 8 -14 13 -25 11 -11 -2 -17 0
-14 6 4 5 11 7 16 4 5 -4 9 -1 9 6 0 6 9 1 21 -12 11 -13 18 -18 14 -11 -3 6
0 12 7 12 8 0 7 4 -4 11 -10 5 -15 16 -11 25 5 12 7 12 18 -3 8 -10 17 -14 21
-10 5 4 2 12 -6 17 -12 8 -13 11 -2 22 8 7 12 9 10 3 -2 -5 2 -10 7 -10 6 0 9
4 7 9 -2 5 4 3 13 -4 9 -7 13 -20 10 -29 -4 -13 -2 -13 8 1 8 10 17 15 20 11
4 -3 5 4 2 16 -4 22 10 30 18 9 2 -7 8 -9 13 -5 10 9 -16 28 -31 24 -5 -2 -10
-9 -10 -14 0 -6 -3 -15 -7 -19 -5 -4 -8 0 -8 9 0 9 -5 17 -12 17 -18 0 -3 10
23 15 13 3 26 10 27 15 2 6 11 3 19 -7 14 -17 14 -17 10 4 -3 13 0 26 5 30 7
3 8 1 4 -5 -4 -7 -2 -12 4 -12 7 0 9 -8 5 -21 -5 -15 -4 -19 5 -14 6 4 10 16
7 26 -8 28 14 35 34 11 14 -18 18 -19 23 -6 3 8 2 13 -2 10 -4 -3 -14 5 -22
17 -12 20 -12 21 4 8 9 -8 20 -10 24 -6 4 4 1 10 -5 12 -7 3 -13 8 -13 13 0
10 27 7 37 -5 4 -4 2 -5 -6 0 -10 5 -12 4 -7 -4 11 -16 26 -3 19 16 -4 10 -2
14 4 10 6 -4 25 6 42 22 28 26 46 30 20 4 -7 -7 -6 -12 6 -17 9 -3 13 -2 10 4
-3 6 -1 10 5 10 6 0 8 5 4 13 -5 8 -2 8 9 -2 9 -7 17 -10 17 -6 0 4 8 1 18 -6
15 -13 16 -12 4 3 -11 14 -10 18 5 27 16 9 16 10 -4 8 -12 0 -19 -5 -17 -9 3
-4 -2 -5 -11 -1 -13 4 -14 8 -4 14 7 4 17 5 21 3 13 -8 9 10 -4 26 -10 11 -9
11 6 0 18 -14 19 -13 13 3 -4 11 -3 16 4 12 6 -4 8 -13 5 -21 -7 -17 25 -19
42 -2 7 7 12 8 12 4 0 -5 7 -3 15 4 15 13 21 2 8 -16 -5 -5 -1 -2 8 8 9 9 18
15 21 13 2 -2 4 4 4 15 0 23 -15 21 -38 -5 -9 -11 -17 -16 -18 -11 0 5 -7 3
-15 -4 -10 -9 -15 -9 -15 -1 0 6 5 11 11 11 8 0 7 6 -2 18 -11 14 -11 15 1 5
17 -15 44 -17 35 -3 -6 9 8 14 28 11 7 -1 11 15 8 32 -1 5 3 6 9 2 6 -3 8 -10
5 -15 -3 -5 -1 -11 4 -15 6 -3 8 -13 5 -23 -5 -14 -4 -14 4 -2 8 10 7 19 -1
29 -10 12 -9 14 4 9 9 -4 27 1 40 10 21 15 22 15 16 -4 -7 -18 -6 -18 8 1 14
17 17 18 26 5 9 -13 10 -12 5 3 -3 9 -1 17 4 17 6 0 10 9 10 21 0 11 -5 17
-10 14 -6 -4 -8 -10 -5 -15 3 -5 -4 -14 -15 -20 -13 -7 -20 -7 -20 0 0 5 6 10
14 10 10 0 13 7 11 20 -2 11 0 18 6 15 5 -4 9 0 9 7 0 8 3 9 8 3 11 -15 55
-39 47 -25 -4 6 -1 17 5 25 9 11 9 15 1 15 -6 0 -11 5 -11 10 0 6 11 3 25 -6
14 -9 28 -14 32 -10 3 3 1 6 -6 6 -7 0 -4 9 8 21 11 12 17 29 14 38 -4 14 -3
14 6 1 9 -13 12 -12 24 4 9 13 16 15 21 8 4 -6 -6 -18 -24 -27 -31 -16 -40
-27 -18 -22 7 1 21 10 32 20 12 10 22 13 24 7 2 -5 8 -10 14 -10 6 0 6 6 -2
14 -9 11 -9 19 0 33 9 14 10 14 7 2 -6 -17 10 -39 27 -39 5 0 1 7 -10 16 -15
12 -15 14 -2 11 9 -3 24 1 35 8 14 11 16 16 6 26 -7 7 -13 17 -13 22 0 5 7 1
16 -8 9 -9 19 -13 22 -10 4 3 0 10 -8 15 -11 7 -12 10 -2 10 7 0 10 5 7 10
-10 16 1 11 16 -7 12 -14 12 -16 0 -8 -10 5 -12 4 -7 -4 6 -9 11 -9 21 -1 8 7
20 8 26 4 8 -5 9 -3 4 6 -6 10 -4 12 8 7 11 -4 14 -2 11 7 -8 21 14 30 34 14
15 -12 15 -11 -1 14 -12 19 -14 29 -5 34 6 4 8 3 5 -3 -4 -6 0 -16 8 -23 13
-11 14 -10 9 4 -4 11 -1 16 11 16 10 0 14 -5 9 -12 -4 -7 2 -5 13 5 14 12 23
14 26 7 3 -6 4 -5 3 2 -2 7 -9 12 -15 11 -6 -2 -11 2 -11 8 0 7 7 8 18 4 9 -4
25 -8 35 -10 15 -4 17 -2 7 10 -15 18 -24 20 -14 3 4 -7 3 -8 -5 -4 -8 6 -9
12 -2 20 6 7 8 15 5 19 -3 3 2 4 13 3 10 -2 17 -10 15 -20 -2 -9 2 -16 8 -16
6 0 8 -5 5 -10 -3 -6 -1 -10 4 -10 12 0 15 13 4 23 -3 4 -8 19 -9 33 -3 24 -2
25 11 8 7 -10 11 -23 8 -28 -4 -5 -1 -6 5 -2 9 5 9 13 2 27 -7 12 -7 25 -2 35
8 15 10 14 16 -1 5 -14 9 -15 21 -5 8 6 20 8 26 4 9 -5 10 -2 6 10 -4 9 -3 15
2 12 5 -3 14 1 21 9 10 12 10 15 0 15 -25 0 0 13 27 15 25 1 47 25 23 25 -6 0
-8 -5 -4 -12 6 -9 3 -9 -9 0 -9 8 -22 11 -29 7 -7 -4 -5 0 5 9 11 8 25 12 33
9 12 -4 12 1 -1 30 -13 31 -13 36 1 47 8 7 12 15 9 18 -3 3 1 12 8 20 9 13 9
14 0 8 -8 -4 -13 -1 -13 9 0 10 5 13 12 9 7 -5 8 -3 3 6 -6 10 -11 9 -21 -5
-8 -10 -16 -16 -19 -13 -3 3 1 11 9 17 8 7 12 19 9 27 -3 8 0 14 7 14 7 0 10
6 7 14 -3 7 0 19 6 25 9 9 8 11 -6 5 -10 -4 -16 -13 -13 -21 3 -8 2 -12 -3 -8
-5 3 -11 2 -14 -2 -5 -10 3 16 11 36 3 9 1 12 -6 7 -8 -5 -10 -2 -5 9 5 13 7
14 14 3 7 -11 11 -10 24 2 13 14 13 18 -7 34 -20 17 -21 17 -14 1 5 -15 4 -16
-9 -5 -9 7 -12 16 -7 19 5 3 8 16 7 28 -1 12 1 20 4 18 4 -2 14 10 24 26 9 17
13 28 9 25 -4 -2 -18 2 -32 10 -14 7 -19 13 -11 14 10 0 11 3 2 14 -9 10 -8
16 3 25 8 7 12 19 9 27 -3 8 0 14 7 14 7 0 10 6 7 14 -3 7 0 19 6 25 9 9 8 11
-6 5 -10 -4 -16 -13 -13 -21 3 -8 2 -12 -3 -8 -5 3 -11 2 -14 -2 -5 -11 0 8 9
31 5 13 4 17 -4 12 -8 -5 -10 -2 -5 9 4 13 8 14 14 4 6 -10 11 -10 23 0 17 14
13 32 -7 30 -9 0 -8 -2 1 -6 6 -2 10 -9 6 -14 -3 -5 -14 1 -24 13 -13 17 -16
28 -9 41 6 9 7 23 3 29 -5 7 -3 8 5 4 7 -5 10 -14 7 -22 -3 -8 -2 -14 3 -14 5
0 11 9 14 20 3 11 1 18 -4 14 -14 -8 -11 9 5 32 13 18 12 20 -7 21 -13 1 -17
-1 -10 -5 8 -5 9 -13 3 -22 -8 -13 -10 -12 -10 3 0 9 0 20 1 23 0 4 -5 11 -13
15 -11 7 -11 9 1 9 10 0 11 3 2 14 -8 10 -9 16 -1 21 5 3 10 11 10 16 0 6 -4
7 -10 4 -6 -3 -7 1 -3 10 5 13 7 14 14 3 7 -10 12 -10 25 4 16 16 16 18 1 24
-9 3 -14 11 -10 17 4 6 1 7 -7 2 -10 -6 -10 -11 3 -20 9 -7 14 -15 10 -18 -3
-4 -12 1 -18 10 -10 13 -10 23 1 49 8 18 11 41 7 50 -5 13 -3 15 7 9 9 -5 11
-4 6 4 -10 15 -29 3 -22 -15 7 -18 -3 -44 -16 -44 -7 0 -6 5 1 14 6 7 9 20 5
29 -3 8 -1 18 5 21 6 4 8 13 4 21 -3 8 0 15 7 15 7 0 10 6 7 14 -3 7 0 19 6
25 9 9 8 11 -6 5 -10 -4 -16 -13 -13 -21 3 -8 2 -12 -3 -8 -5 3 -11 2 -14 -2
-5 -10 1 12 10 34 4 11 3 14 -5 9 -8 -5 -10 -2 -5 9 5 13 7 14 14 3 7 -10 12
-10 25 4 16 16 16 18 1 24 -9 3 -14 11 -10 17 4 6 1 7 -7 2 -10 -6 -10 -11 3
-20 9 -7 14 -15 10 -18 -3 -4 -12 1 -18 10 -10 13 -10 23 1 49 8 18 11 41 7
50 -5 13 -3 15 7 9 9 -5 11 -4 6 4 -10 15 -29 3 -22 -15 7 -18 -3 -44 -16 -44
-7 0 -6 5 1 14 6 7 9 20 5 29 -3 8 -1 18 5 21 6 4 8 13 4 21 -3 8 0 15 7 15 7
0 10 6 7 14 -3 7 0 19 6 25 9 9 8 11 -6 5 -10 -4 -16 -13 -13 -21 3 -8 2 -12
-3 -8 -5 3 -11 2 -14 -2 -5 -10 1 12 10 34 4 11 3 14 -5 9 -8 -5 -10 -2 -5 9
5 13 7 14 14 3 7 -10 11 -10 25 4 15 15 15 17 -6 28 -18 10 -21 10 -15 -2 5
-7 4 -10 -1 -5 -5 5 -9 12 -9 15 0 4 -4 13 -9 21 -5 8 -5 12 0 9 5 -3 15 0 21
7 10 11 9 15 -7 20 -20 6 -20 7 2 26 l23 20 -25 -5 c-14 -3 -20 -3 -13 0 7 3
9 12 6 20 -3 10 2 14 18 14 21 1 22 2 6 11 -9 5 -23 7 -30 4 -6 -4 -5 -1 3 7
9 7 14 21 12 31 -2 9 0 17 5 17 5 0 9 13 8 30 0 25 -3 29 -20 25 -11 -3 -15
-2 -8 1 7 3 9 12 6 20 -3 10 2 14 18 14 21 1 22 2 6 11 -9 5 -23 7 -30 4 -6
-4 -5 -1 3 7 9 7 14 21 12 31 -2 9 1 17 6 17 6 0 9 8 7 18 -1 9 2 23 8 30 7 9
6 11 -7 6 -9 -3 -15 -13 -14 -22 2 -8 -4 -17 -12 -19 -9 -3 -11 -1 -5 4 13 11
18 56 5 48 -6 -3 -7 1 -3 10 5 13 7 14 14 3 7 -10 12 -10 25 4 16 16 16 18 1
24 -9 3 -14 11 -10 17 4 6 1 7 -7 2 -10 -6 -10 -11 3 -20 9 -7 14 -15 10 -18
-3 -4 -12 1 -18 10 -10 13 -10 23 1 49 8 18 11 41 7 50 -5 13 -3 15 7 9 9 -5
11 -4 6 4 -10 15 -29 3 -22 -15 7 -18 -3 -44 -16 -44 -7 0 -6 5 1 14 6 7 9 20
5 29 -3 8 -1 18 5 21 6 4 8 13 4 21 -3 8 0 15 7 15 7 0 10 6 7 14 -3 7 0 19 6
25 9 9 8 11 -6 5 -10 -4 -16 -13 -13 -21 3 -8 2 -12 -3 -8 -5 3 -11 2 -14 -2
-5 -10 3 16 11 36 3 9 1 12 -6 7 -8 -5 -10 -2 -5 9 5 13 7 14 14 3 7 -10 12
-10 25 4 16 16 16 18 1 24 -9 3 -14 11 -10 17 4 6 1 7 -7 2 -10 -6 -10 -11 3
-20 9 -7 14 -15 10 -18 -3 -4 -12 1 -18 10 -10 13 -10 23 1 49 8 18 11 41 7
50 -5 13 -3 15 7 9 9 -5 11 -4 6 4 -10 15 -29 3 -22 -15 7 -18 -3 -44 -16 -44
-7 0 -6 5 1 14 6 7 9 20 5 29 -3 8 -1 18 5 21 6 4 8 13 4 21 -3 8 0 15 7 15 7
0 10 6 7 14 -3 7 0 19 6 25 9 9 8 11 -6 5 -10 -4 -16 -13 -13 -21 3 -8 2 -12
-3 -8 -5 3 -11 2 -14 -2 -5 -11 0 8 9 31 5 13 4 17 -4 12 -8 -5 -10 -2 -5 9 5
13 7 14 14 3 7 -10 12 -10 25 4 16 16 16 18 1 24 -9 3 -14 10 -11 15 3 5 0 9
-5 9 -17 0 -13 -18 5 -28 9 -5 12 -12 7 -15 -5 -3 -17 7 -27 24 -10 16 -14 29
-9 28 23 -4 32 2 26 18 -5 11 -3 14 6 8 10 -6 11 -3 2 14 -7 12 -9 26 -5 32 4
7 -2 9 -17 5 -13 -3 -19 -3 -12 0 7 3 9 12 6 20 -3 10 2 14 18 14 21 1 22 2 6
11 -9 5 -23 7 -30 4 -6 -4 -5 -1 3 7 9 7 14 21 12 31 -2 9 0 17 5 17 5 0 9 13
8 30 0 25 -3 29 -20 25 -11 -3 -15 -2 -8 1 7 3 9 12 6 20 -3 10 2 14 18 14 21
1 22 2 6 11 -9 5 -23 7 -30 4 -6 -4 -5 -1 3 7 9 7 14 21 12 31 -2 9 1 17 6 17
6 0 9 8 7 18 -1 9 2 23 8 30 7 9 6 11 -7 6 -9 -3 -15 -13 -14 -22 2 -8 -4 -17
-12 -19 -9 -3 -11 -1 -5 4 13 11 18 56 5 48 -6 -3 -7 1 -3 10 5 13 7 14 14 3
7 -10 12 -10 25 4 16 16 16 18 1 24 -9 3 -14 11 -10 17 4 6 1 7 -7 2 -10 -6
-10 -11 3 -20 9 -7 14 -15 10 -18 -3 -4 -12 1 -18 10 -10 13 -10 23 1 49 8 18
11 41 7 50 -5 13 -3 15 7 9 9 -5 11 -4 6 4 -10 15 -29 3 -22 -15 7 -18 -3 -44
-16 -44 -7 0 -6 5 1 14 6 7 9 20 5 29 -3 8 -1 18 5 21 6 4 8 13 4 21 -3 8 0
15 7 15 7 0 10 6 7 14 -3 7 0 19 6 25 9 9 8 11 -6 5 -10 -4 -16 -13 -13 -21 3
-8 2 -12 -3 -8 -5 3 -11 2 -14 -2 -5 -10 1 12 10 34 4 11 3 14 -5 9 -8 -5 -10
-2 -5 9 5 13 7 14 14 3 7 -10 12 -10 25 4 16 16 16 18 1 24 -9 3 -14 11 -10
17 4 6 1 7 -7 2 -10 -6 -10 -11 3 -20 9 -7 14 -15 10 -18 -3 -4 -12 1 -18 10
-10 13 -10 23 1 49 8 18 11 41 7 50 -5 13 -3 15 7 9 9 -5 11 -4 6 4 -10 15
-29 3 -22 -15 7 -18 -3 -44 -16 -44 -7 0 -6 5 1 14 6 7 9 20 5 29 -3 8 -1 18
5 21 6 4 8 13 4 21 -3 8 0 15 7 15 7 0 10 6 7 14 -3 7 0 19 6 25 9 9 8 11 -6
5 -10 -4 -16 -13 -13 -21 3 -8 2 -12 -3 -8 -5 3 -11 2 -14 -2 -5 -11 0 8 9 31
5 13 4 17 -4 12 -8 -5 -10 -2 -5 9 5 13 7 14 14 3 7 -10 11 -10 25 4 15 15 15
17 -6 28 -18 10 -21 10 -15 -2 5 -7 4 -10 -1 -5 -5 5 -9 12 -9 15 0 4 -4 13
-9 21 -5 8 -5 12 0 9 5 -3 15 0 21 7 10 11 9 15 -9 20 -11 4 -17 10 -12 14 13
9 18 44 5 36 -7 -4 -8 0 -4 10 5 13 7 14 14 3 7 -10 12 -10 25 4 16 16 16 18
1 24 -9 3 -14 11 -10 17 4 6 1 7 -7 2 -10 -6 -10 -11 3 -20 9 -7 14 -15 10
-18 -3 -4 -12 1 -18 10 -10 13 -10 23 1 49 8 18 11 41 7 50 -5 13 -3 15 7 9 9
-5 11 -4 6 4 -10 15 -29 3 -22 -15 7 -18 -3 -44 -16 -44 -7 0 -6 5 1 14 6 7 9
20 5 29 -3 8 -1 18 5 21 6 4 8 13 4 21 -3 8 0 15 7 15 7 0 10 6 7 14 -3 7 0
19 6 25 9 9 8 11 -6 5 -10 -4 -16 -13 -13 -21 3 -8 2 -12 -3 -8 -5 3 -11 2
-14 -2 -5 -10 1 12 10 34 4 11 3 14 -5 9 -8 -5 -10 -2 -5 9 4 13 8 14 14 4 6
-10 11 -10 23 0 17 14 13 31 -7 31 -8 0 -8 -3 2 -9 8 -5 9 -11 3 -15 -5 -3
-12 0 -15 7 -7 18 -3 32 7 29 5 -2 4 3 -2 10 -7 9 -8 19 -2 28 5 8 7 23 4 34
-4 13 -3 16 6 11 9 -5 11 -4 6 4 -10 15 -29 3 -22 -15 7 -18 -3 -44 -16 -44
-7 0 -6 5 1 14 6 7 9 20 6 29 -4 9 3 22 17 32 l23 17 -23 -5 c-19 -4 -21 -3
-12 8 6 8 19 11 28 8 18 -7 17 -5 -12 17 -12 9 -17 10 -12 3 5 -9 2 -11 -9 -6
-12 4 -13 8 -4 13 6 5 9 14 6 22 -3 8 -1 21 5 29 8 11 9 10 4 -3 -3 -10 -1
-18 4 -18 19 0 10 32 -10 37 -23 6 -25 14 -8 31 8 8 8 12 1 12 -6 0 -18 -10
-27 -22 -13 -19 -15 -19 -8 -3 5 11 7 26 5 33 -3 8 2 10 14 6 14 -5 15 -4 4 4
-10 7 -22 7 -38 -1 -17 -7 -27 -7 -35 1 -8 8 -5 9 11 5 16 -4 21 -1 21 13 0
15 -2 16 -9 5 -6 -9 -11 -10 -15 -2 -4 6 -4 11 1 11 4 0 2 4 -6 9 -16 10 -53
2 -45 -10 11 -18 -8 -8 -25 12 -15 19 -21 20 -42 10 l-24 -12 25 20 25 21 -31
-4 c-31 -3 -37 5 -21 30 4 7 -1 18 -11 25 -15 13 -16 12 -3 -3 8 -11 9 -18 3
-18 -6 0 -16 8 -21 18 -6 9 -11 12 -11 7 0 -6 4 -15 10 -21 6 -6 6 -15 0 -24
-5 -8 -10 -10 -11 -5 0 6 -3 19 -5 30 -3 11 -6 26 -6 33 -1 6 -5 12 -9 12 -5
0 -7 -12 -5 -27 2 -16 1 -20 -1 -10 -3 13 -11 16 -26 12 -19 -5 -20 -4 -5 5
10 6 15 17 11 27 -4 10 -2 14 4 10 5 -3 10 0 10 7 0 7 -6 13 -13 13 -7 0 -11
-3 -9 -7 2 -3 -5 -14 -16 -23 -10 -9 -19 -12 -19 -6 0 5 -5 7 -10 4 -6 -4 -10
-3 -9 2 1 4 1 15 0 23 -1 13 -2 13 -11 0 -8 -13 -10 -12 -10 3 0 9 4 17 8 17
4 0 8 9 8 19 0 11 -4 17 -8 15 -4 -3 -8 -13 -8 -22 0 -12 -3 -13 -12 -4 -7 7
-17 12 -22 12 -6 0 -5 -4 3 -9 23 -15 22 -40 -1 -36 -12 3 -23 7 -27 11 -3 4
2 4 11 1 10 -3 20 -2 23 3 6 9 -8 14 -28 11 -4 -1 -4 7 1 16 14 27 4 47 -14
29 -16 -17 -19 -30 -4 -21 6 4 7 -1 3 -11 -5 -14 -7 -14 -18 5 -6 12 -14 19
-18 16 -4 -3 -5 -2 -2 2 3 3 -3 13 -13 21 -12 10 -9 9 10 -2 17 -10 29 -12 33
-6 6 9 -1 14 -17 11 -5 0 -8 4 -8 10 0 5 -4 8 -9 4 -5 -3 -12 -1 -16 5 -4 6
-10 8 -15 5 -5 -3 -17 5 -27 17 -23 28 -40 33 -60 16 -12 -10 -14 -9 -13 3 4
27 0 40 -12 38 -7 -1 -21 1 -31 6 -15 6 -16 10 -5 17 8 6 5 7 -12 2 -23 -6
-24 -6 -10 12 14 17 14 18 -2 6 -11 -9 -18 -10 -23 -2 -3 5 -1 10 4 10 6 0 11
5 11 11 0 8 -5 7 -15 -1 -14 -12 -14 -15 1 -31 9 -10 25 -21 35 -24 11 -4 17
-10 14 -15 -3 -5 3 -7 15 -5 11 2 22 0 24 -4 3 -4 -7 -7 -22 -6 -15 1 -34 -3
-42 -9 -12 -8 -13 -8 -2 4 14 17 16 34 2 25 -5 -3 -10 -1 -10 6 0 9 -3 9 -14
0 -10 -8 -16 -9 -21 -1 -4 6 -3 9 2 8 4 -2 8 2 8 7 0 6 -4 9 -8 7 -5 -1 -6 1
-4 5 3 5 -2 17 -10 28 -15 19 -15 19 -8 -5 4 -17 3 -21 -3 -11 -8 11 -10 11
-15 0 -3 -8 -5 -3 -4 11 1 14 7 29 12 33 6 5 3 7 -7 3 -12 -4 -18 0 -19 12 0
11 -2 12 -6 4 -3 -7 0 -18 5 -25 8 -9 8 -17 0 -27 -8 -12 -9 -12 -4 3 6 19 -4
22 -22 7 -9 -7 -9 -7 -2 2 15 18 12 32 -5 18 -12 -10 -14 -7 -10 19 2 21 0 29
-7 25 -7 -5 -9 1 -5 16 4 17 3 20 -6 11 -9 -9 -9 -16 1 -31 8 -14 9 -21 0 -26
-7 -4 -8 -3 -4 4 4 7 3 12 -3 12 -5 0 -12 -6 -14 -12 -3 -7 -3 5 -1 27 3 27 1
35 -5 25 -5 -8 -7 -18 -5 -22 3 -4 -3 -5 -12 -1 -12 4 -15 3 -10 -6 6 -9 3 -9
-13 1 -12 7 -21 16 -21 21 0 4 -5 5 -11 1 -7 -4 -6 2 2 17 11 22 11 23 -4 10
-10 -7 -17 -10 -17 -6 0 4 -7 2 -15 -5 -10 -9 -15 -9 -15 -1 0 6 4 11 8 11 4
0 8 9 9 21 2 17 -1 18 -13 8 -8 -6 -17 -9 -21 -5 -4 3 1 12 11 19 16 12 16 13
-3 14 -11 1 -24 -3 -27 -9 -4 -7 -2 -8 4 -4 8 5 10 1 5 -9 -4 -13 -8 -14 -14
-4 -4 7 -5 17 -3 21 3 4 -1 8 -8 8 -10 0 -9 3 2 11 13 9 13 10 0 6 -8 -2 -14
-13 -12 -23 3 -18 3 -18 -13 1 -13 15 -15 16 -12 3 6 -17 -16 -19 -30 -3 -5 4
-2 5 6 0 11 -6 13 -4 8 8 -3 9 1 23 9 32 14 13 12 14 -15 9 -20 -4 -31 -2 -31
5 0 6 -3 10 -7 10 -20 -3 -33 2 -33 12 0 8 4 8 14 0 10 -8 16 -9 21 -1 4 6 1
9 -7 8 -7 -2 -13 5 -13 14 0 9 -4 20 -8 25 -5 4 -8 4 -7 -2 1 -5 2 -17 1 -25
-1 -12 -3 -13 -10 -1 -7 11 -10 9 -16 -8 -3 -11 -3 -26 1 -32 4 -8 3 -9 -4 -5
-15 9 -16 48 -2 62 6 6 3 10 -10 11 -16 1 -19 -4 -16 -27 2 -17 -1 -27 -6 -24
-5 3 -7 13 -4 21 5 12 1 14 -15 10 l-21 -6 21 23 c11 12 21 26 21 32 0 5 -4 3
-9 -4 -6 -11 -11 -10 -25 3 -9 9 -16 13 -16 9 0 -4 -7 1 -15 12 -8 10 -15 14
-15 9 0 -6 -16 -11 -35 -12 -34 -1 -35 1 -30 30 5 27 4 29 -10 17 -14 -11 -18
-11 -25 0 -4 7 -17 11 -28 8 -14 -4 -19 -2 -15 8 2 7 10 12 16 10 7 -1 9 -1 4
1 -4 3 -5 9 -2 13 3 5 0 12 -6 16 -8 5 -9 3 -5 -5 5 -8 0 -14 -13 -18 -11 -3
-19 -9 -16 -13 3 -5 1 -11 -4 -14 -4 -3 -8 4 -7 16 0 12 -5 23 -13 26 -8 2
-11 0 -8 -5 3 -5 0 -10 -8 -10 -12 0 -12 4 2 19 16 18 18 18 30 2 11 -16 13
-16 13 -2 0 9 -6 18 -12 21 -18 5 -48 -3 -48 -14 0 -5 -5 -9 -11 -9 -6 0 -7 5
-2 13 13 20 10 55 -4 50 -10 -4 -11 -9 -3 -18 8 -10 8 -15 -1 -21 -8 -4 -9 -3
-5 4 10 16 -7 15 -23 0 -10 -11 -12 -10 -9 2 2 10 -4 15 -19 14 -15 -1 -20 3
-15 10 8 13 11 65 3 64 -27 -2 -41 4 -35 15 5 8 2 8 -9 -2 -19 -15 -23 -26 -5
-15 6 4 8 3 5 -3 -3 -5 3 -9 15 -9 22 1 34 -29 16 -41 -7 -3 -8 -1 -4 5 4 7 2
12 -4 12 -6 0 -8 5 -4 12 5 8 2 9 -9 5 -11 -4 -22 1 -29 13 -16 26 -32 26 -18
1 5 -11 10 -23 10 -28 -1 -4 -7 4 -15 19 -11 19 -21 26 -36 23 -17 -4 -19 -2
-8 11 6 8 9 17 6 21 -4 3 -2 12 4 19 7 8 6 14 -2 20 -7 4 -9 3 -5 -4 3 -6 2
-13 -3 -16 -5 -4 -12 -2 -16 4 -4 6 -11 8 -16 5 -5 -4 -9 -3 -9 2 0 8 -47 33
-63 33 -4 0 -5 -10 -2 -21 5 -15 4 -19 -4 -15 -15 10 -14 43 2 49 9 4 9 6 -1
6 -7 1 -11 5 -8 9 4 7 -14 11 -62 13 -18 1 -21 4 -11 15 7 8 9 17 5 21 -3 3
-6 1 -6 -6 0 -9 -8 -11 -26 -7 -16 4 -23 3 -19 -3 4 -7 -1 -8 -11 -4 -11 4
-13 8 -6 11 26 8 10 18 -25 15 -36 -2 -37 -2 -8 6 17 5 22 9 12 10 -12 1 -16
5 -11 14 5 7 0 6 -11 -3 -17 -14 -18 -14 -6 9 11 19 11 22 0 15 -20 -12 -49
-12 -42 -1 4 6 0 8 -10 4 -24 -9 -47 2 -47 22 1 14 2 14 14 -1 14 -19 32 -25
21 -8 -3 6 -1 10 4 10 6 0 11 5 11 11 0 8 -5 8 -15 -1 -12 -10 -15 -10 -15 0
0 7 -7 10 -15 7 -8 -4 -17 -2 -20 3 -4 6 -1 10 6 10 7 0 10 3 6 6 -11 11 -29
-7 -18 -20 7 -8 6 -17 -1 -26 -8 -12 -9 -12 -4 2 3 10 1 20 -4 23 -5 3 -9 13
-9 23 -1 38 -5 51 -13 46 -4 -3 -4 -13 1 -23 7 -13 4 -20 -12 -31 -20 -12 -21
-12 -9 3 10 12 11 21 3 34 -6 10 -11 12 -11 6 0 -7 -5 -13 -11 -13 -6 0 -8 10
-5 23 l6 22 -11 -22 c-13 -25 -24 -29 -34 -13 -5 8 -11 7 -21 -1 -12 -10 -15
-10 -12 2 2 9 -4 13 -17 11 -16 -2 -17 -1 -5 7 9 6 18 6 26 0 8 -6 14 -4 18 6
3 9 2 13 -4 10 -6 -3 -10 -1 -10 4 0 6 -5 10 -12 8 -7 -1 -12 5 -13 13 0 9 -8
14 -18 12 -9 -2 -17 2 -17 8 0 5 -6 10 -12 10 -7 0 0 -11 15 -25 31 -30 32
-32 13 -32 -8 0 -14 5 -13 11 1 6 -4 10 -10 9 -7 -2 -12 3 -10 10 1 7 -7 11
-20 10 -13 -2 -23 2 -23 8 0 5 -5 7 -12 3 -7 -4 -8 -3 -4 5 4 6 11 9 15 7 4
-3 8 4 8 15 2 17 0 17 -13 5 -8 -9 -22 -12 -31 -9 -12 5 -14 3 -8 -7 6 -9 4
-11 -5 -5 -10 6 -10 11 3 20 9 7 14 15 10 18 -3 4 -12 2 -20 -5 -11 -9 -13 -8
-11 2 2 8 -4 15 -12 16 -8 0 -21 2 -27 2 -7 1 -13 10 -13 20 1 15 2 15 15 -2
8 -11 18 -17 21 -13 4 3 -1 13 -10 22 -12 12 -20 14 -36 5 -12 -6 -20 -7 -20
-1 0 5 -11 8 -24 7 -17 -2 -23 1 -19 11 4 10 9 11 18 3 9 -8 14 -6 19 6 4 9 4
19 1 22 -3 3 -5 0 -5 -6 0 -7 -5 -12 -11 -12 -5 0 -8 4 -5 9 3 5 -2 15 -12 22
-15 12 -16 12 -4 -2 10 -14 10 -18 -4 -23 -21 -8 -24 -8 -24 5 0 5 4 7 10 4 6
-3 7 1 4 10 -4 9 -12 14 -20 11 -17 -6 -38 20 -28 36 5 10 4 10 -6 1 -11 -10
-11 -15 -1 -27 7 -9 11 -21 8 -28 -4 -8 -6 -7 -6 5 -1 9 -5 17 -11 17 -5 0
-10 6 -10 13 0 8 -10 19 -23 24 -19 9 -26 8 -35 -6 -10 -14 -11 -14 -5 3 4 13
3 17 -5 12 -7 -4 -9 4 -7 25 4 29 3 30 -9 13 -8 -10 -12 -22 -10 -26 3 -4 -2
-5 -10 -2 -9 3 -16 10 -16 16 0 5 4 6 10 3 5 -3 7 0 4 9 -3 8 -12 12 -20 9 -8
-3 -12 -9 -9 -13 3 -5 1 -11 -4 -14 -5 -4 -8 2 -7 11 2 10 -4 24 -13 31 -12
10 -12 12 -1 6 13 -7 13 -6 0 11 -14 17 -13 18 3 12 11 -4 16 -3 12 4 -4 6
-13 8 -20 5 -8 -3 -15 0 -18 7 -2 6 -6 3 -10 -7 -5 -11 -3 -15 5 -10 7 5 8 3
3 -6 -5 -9 -4 -11 3 -6 8 5 10 1 6 -9 -6 -14 -9 -13 -22 6 -11 17 -16 18 -23
8 -7 -11 -10 -9 -15 9 -7 24 -14 27 -32 12 -7 -5 -5 -2 4 8 14 16 16 16 30 -2
11 -16 14 -17 14 -4 0 26 -32 31 -62 8 -15 -11 -31 -20 -35 -20 -4 0 0 5 10
11 15 9 16 13 5 27 -10 12 -10 14 0 8 6 -4 12 -2 12 3 0 6 -7 11 -15 11 -8 0
-15 4 -15 10 0 8 20 5 43 -7 4 -3 2 -12 -5 -21 -10 -14 -10 -15 2 -5 14 13 23
43 12 42 -21 -3 -43 2 -38 9 2 4 -6 9 -18 10 -15 1 -27 -6 -35 -21 l-11 -22 6
23 c3 13 1 22 -6 22 -6 0 -8 5 -4 12 4 6 3 8 -4 5 -5 -4 -8 -17 -6 -30 4 -21
4 -21 -6 2 -7 17 -7 27 1 37 7 9 8 14 1 14 -6 0 -12 -5 -14 -12 -2 -6 -10 -8
-17 -4 -9 6 -8 11 6 22 17 13 17 14 -1 7 -13 -4 -17 -3 -12 5 3 6 1 14 -5 18
-7 4 -9 3 -5 -4 8 -13 -5 -22 -42 -28 -19 -3 -23 -2 -12 5 8 5 17 8 21 5 4 -2
11 1 15 7 5 8 3 9 -6 4 -10 -6 -12 -4 -7 8 3 10 2 17 -3 17 -6 0 -10 -7 -10
-15 0 -8 -4 -15 -10 -15 -5 0 -9 5 -7 11 3 16 -34 20 -51 7 -10 -9 -12 -8 -10
3 2 8 -4 14 -12 14 -14 0 -20 7 -20 20 0 3 9 1 19 -5 17 -9 19 -7 16 11 -3 12
-7 24 -11 28 -4 3 -4 -2 -1 -11z m-38 -57 c3 -5 2 -12 -3 -15 -5 -3 -9 1 -9 9
0 17 3 19 12 6z m-127 -15 c-10 -7 -14 -17 -10 -21 4 -5 2 -5 -5 -1 -6 3 -20
-3 -31 -14 l-19 -20 2 22 c1 14 8 22 17 20 9 -1 21 5 28 13 7 8 18 15 24 15 6
0 3 -7 -6 -14z m232 8 c0 -2 -9 -8 -20 -14 -15 -8 -18 -8 -14 3 4 11 34 21 34
11z m66 -43 c0 -12 -6 -17 -18 -13 -18 4 -18 5 -1 18 10 7 18 14 18 14 1 0 1
-8 1 -19z m29 -51 c2 -12 1 -20 -2 -16 -4 4 -8 16 -10 28 -4 28 6 18 12 -12z
m-491 -5 c3 -8 0 -14 -7 -12 -7 1 -11 -3 -10 -9 1 -6 -5 -11 -13 -11 -18 0
-18 2 3 27 21 24 19 24 27 5z m570 0 c-4 -8 -8 -15 -10 -15 -2 0 -4 7 -4 15 0
8 4 15 10 15 5 0 7 -7 4 -15z m-704 -101 c0 -2 -9 0 -20 6 -11 6 -20 13 -20
16 0 2 9 0 20 -6 11 -6 20 -13 20 -16z m-15 -14 c3 -5 1 -10 -4 -10 -6 0 -11
5 -11 10 0 6 2 10 4 10 3 0 8 -4 11 -10z m-175 -75 c0 -8 -4 -15 -10 -15 -5 0
-7 7 -4 15 4 8 8 15 10 15 2 0 4 -7 4 -15z m1215 -34 c3 -5 2 -12 -3 -15 -5
-3 -9 1 -9 9 0 17 3 19 12 6z m58 -16 c-3 -9 -8 -14 -10 -11 -3 3 -2 9 2 15 9
16 15 13 8 -4z m-1397 -37 c4 -7 3 -9 -1 -5 -5 4 -15 -3 -22 -15 -8 -15 -12
-18 -13 -7 0 8 5 20 12 27 15 15 15 15 24 0z m28 -26 c2 -4 -4 -8 -14 -8 -10
0 -16 4 -14 8 3 4 9 8 14 8 5 0 11 -4 14 -8z m-258 -84 c-1 -7 -6 -15 -11 -17
-6 -2 -15 -11 -21 -19 -8 -11 -13 -12 -18 -3 -4 6 0 14 8 17 9 3 13 11 9 17
-3 5 -1 7 5 3 6 -3 13 -2 17 4 8 14 14 13 11 -2z m-176 -120 c0 -18 -2 -20 -9
-8 -6 8 -7 18 -5 22 9 14 14 9 14 -14z m2265 -17 c3 -5 2 -12 -3 -15 -5 -3 -9
1 -9 9 0 17 3 19 12 6z m-2270 -21 c3 -6 -1 -7 -9 -4 -18 7 -21 14 -7 14 6 0
13 -4 16 -10z m2355 -40 c0 -5 -5 -10 -11 -10 -5 0 -7 5 -4 10 3 6 8 10 11 10
2 0 4 -4 4 -10z m-2463 -15 c0 -8 -4 -12 -9 -9 -5 3 -6 10 -3 15 9 13 12 11
12 -6z m2503 6 c0 -6 -4 -12 -8 -15 -5 -3 -9 1 -9 9 0 8 4 15 9 15 4 0 8 -4 8
-9z m160 -72 c0 -5 4 -8 8 -5 4 2 14 1 22 -5 10 -5 11 -9 3 -9 -7 0 -10 -7 -6
-17 5 -14 1 -12 -14 4 -11 13 -22 20 -25 18 -2 -3 -5 2 -5 10 0 8 4 15 9 15 4
0 8 -5 8 -11z m-5 -47 c-3 -3 -11 0 -18 7 -9 10 -8 11 6 5 10 -3 15 -9 12 -12z
m117 -41 c-4 -10 -8 -8 -14 8 -4 12 -12 20 -16 17 -5 -3 -9 1 -9 9 0 10 5 10
22 -3 13 -9 20 -23 17 -31z m38 5 c9 -12 8 -15 -8 -13 -12 0 -18 6 -15 14 6
16 8 16 23 -1z m-3162 -34 c4 -35 -5 -25 -12 12 -3 16 -2 25 1 22 4 -4 9 -19
11 -34z m33 -5 c-10 -9 -11 -8 -5 6 3 10 9 15 12 12 3 -3 0 -11 -7 -18z m3119
3 c0 -5 -2 -10 -4 -10 -3 0 -8 5 -11 10 -3 6 -1 10 4 10 6 0 11 -4 11 -10z
m116 -76 c1 -9 0 -13 -4 -10 -3 4 -7 14 -8 22 -1 9 0 13 4 10 3 -4 7 -14 8
-22z m-3498 -36 c-2 -7 -9 -19 -16 -27 -11 -11 -16 -11 -25 -1 -9 10 -9 11 0
6 7 -4 17 2 23 14 12 22 21 27 18 8z m-77 -65 c-12 -20 -14 -14 -5 12 4 9 9
14 11 11 3 -2 0 -13 -6 -23z m3839 -33 c0 -5 -5 -10 -11 -10 -5 0 -7 5 -4 10
3 6 8 10 11 10 2 0 4 -4 4 -10z m62 -52 c-8 -8 -9 -4 -5 13 4 13 8 18 11 10 2
-7 -1 -18 -6 -23z m65 -10 c-7 -4 -17 -1 -23 8 -9 12 -13 12 -17 2 -3 -7 -5
-4 -4 8 1 20 2 20 28 5 19 -11 24 -18 16 -23z m-4143 -26 c3 -5 -1 -9 -9 -9
-8 0 -12 4 -9 9 3 4 7 8 9 8 2 0 6 -4 9 -8z m-160 -53 c-3 -6 0 -15 7 -20 8
-5 9 -9 3 -9 -5 0 -19 7 -30 16 -10 8 -14 13 -7 10 6 -4 14 -2 18 4 3 5 8 10
11 10 3 0 2 -5 -2 -11z m-15 -32 c-2 -1 -11 -8 -21 -15 -12 -10 -18 -10 -24
-1 -4 8 -3 9 4 5 7 -4 12 -2 12 3 0 6 8 11 17 11 9 0 14 -1 12 -3z m-159 -62
c-7 -8 -17 -15 -23 -15 -6 0 -2 7 9 15 25 19 30 19 14 0z m-83 -51 c-3 -3 -2
-17 4 -31 6 -16 6 -22 -1 -18 -6 3 -10 13 -10 21 0 8 -6 14 -12 14 -9 0 -8 4
2 10 17 11 26 13 17 4z m-180 -111 c-4 -3 -2 -12 5 -20 8 -11 7 -12 -6 -7 -9
3 -16 9 -16 13 0 9 11 21 18 21 3 0 2 -3 -1 -7z m5472 -87 c8 -9 18 -13 24 -9
6 3 7 1 3 -6 -4 -6 -4 -18 1 -24 4 -7 0 -4 -9 6 -12 12 -18 15 -18 6 0 -7 -11
1 -23 19 -13 17 -28 28 -32 24 -5 -4 -5 -1 -1 6 8 14 34 3 55 -22z m-5600 2
c-5 -10 -12 -18 -14 -18 -2 0 -3 8 -2 18 0 10 7 19 13 19 9 0 10 -5 3 -19z
m12 -25 c-12 -20 -14 -14 -5 12 4 9 9 14 11 11 3 -2 0 -13 -6 -23z m5545 15
c3 -4 -1 -5 -10 -4 -8 1 -18 5 -22 8 -3 4 1 5 10 4 8 -1 18 -5 22 -8z m-5676
-94 c0 -8 -19 -13 -24 -6 -3 5 1 9 9 9 8 0 15 -2 15 -3z m-189 -87 c-13 -13
-26 -3 -16 12 3 6 11 8 17 5 6 -4 6 -10 -1 -17z m-34 -9 c2 -17 0 -19 -7 -8
-5 8 -6 18 -4 22 8 12 10 10 11 -14z m6183 12 c0 -5 -5 -10 -11 -10 -5 0 -7 5
-4 10 3 6 8 10 11 10 2 0 4 -4 4 -10z m211 -93 c-10 -9 -11 -8 -5 6 3 10 9 15
12 12 3 -3 0 -11 -7 -18z m-6607 -33 c3 -8 2 -12 -3 -9 -5 3 -12 1 -16 -5 -3
-5 -1 -10 6 -10 7 0 10 -3 6 -6 -14 -14 -26 8 -14 26 14 24 13 24 21 4z m36
-8 c0 -3 -4 -8 -10 -11 -5 -3 -10 -1 -10 4 0 6 5 11 10 11 6 0 10 -2 10 -4z
m-83 -135 c0 -11 -5 -18 -9 -15 -4 3 -5 11 -1 19 7 21 12 19 10 -4z m6793
-555 c0 -3 -4 -8 -10 -11 -5 -3 -10 -1 -10 4 0 6 5 11 10 11 6 0 10 -2 10 -4z
m-6773 -491 c0 -8 -4 -12 -9 -9 -5 3 -6 10 -3 15 9 13 12 11 12 -6z m-2 -65
c3 -5 1 -10 -4 -10 -6 0 -11 5 -11 10 0 6 2 10 4 10 3 0 8 -4 11 -10z m-18
-60 c-1 -21 -10 -18 -13 5 -1 8 2 15 6 15 5 0 8 -9 7 -20z m23 -34 c0 -3 -4
-8 -10 -11 -5 -3 -10 -1 -10 4 0 6 5 11 10 11 6 0 10 -2 10 -4z m6745 -67 c-4
-5 -12 -9 -18 -8 -9 0 -8 2 1 6 6 2 9 10 6 15 -4 7 -2 8 5 4 6 -4 9 -12 6 -17z
m-6720 1 c-3 -5 -12 -10 -18 -10 -7 0 -6 4 3 10 19 12 23 12 15 0z m-45 -70
c-5 -10 -6 -21 -2 -26 4 -5 -1 -2 -10 5 -20 15 -24 26 -6 15 7 -5 9 -2 6 8 -4
8 0 15 7 15 10 0 11 -5 5 -17z m6764 -103 c-3 -9 -11 -17 -16 -17 -6 0 -5 6 2
15 6 8 8 20 4 27 -5 10 -4 10 5 2 6 -6 9 -18 5 -27z m-6724 -67 c0 -5 -2 -10
-4 -10 -3 0 -8 5 -11 10 -3 6 -1 10 4 10 6 0 11 -4 11 -10z m-42 -145 c-2 -12
-7 -7 -15 16 -12 30 -11 32 3 17 9 -8 14 -23 12 -33z m19 -30 c0 -8 -2 -13 -5
-11 -10 10 -29 -20 -22 -34 4 -8 6 -23 5 -32 -3 -19 5 -23 21 -10 5 4 4 1 -3
-7 -18 -22 -40 2 -37 41 1 18 3 35 4 38 1 3 2 9 1 13 -1 5 3 6 8 3 5 -4 12 -2
16 4 9 14 12 13 12 -5z m3 -45 c0 -5 -2 -10 -4 -10 -3 0 -8 5 -11 10 -3 6 -1
10 4 10 6 0 11 -4 11 -10z m6 -122 c5 -7 3 -8 -6 -3 -10 6 -12 4 -6 -11 5 -14
4 -16 -5 -7 -6 6 -8 16 -5 22 9 14 13 14 22 -1z m-16 -82 c0 -2 -7 -7 -16 -10
-8 -3 -12 -2 -9 4 6 10 25 14 25 6z m-6 -115 c3 -5 -1 -11 -9 -15 -15 -6 -29
7 -18 18 9 9 21 8 27 -3z m13 -35 c0 -8 -6 -12 -15 -9 -11 5 -11 7 0 14 7 5
13 9 14 9 0 0 1 -6 1 -14z m-9 -29 c8 -10 6 -13 -7 -13 -10 0 -18 6 -18 13 0
7 4 13 7 13 4 0 12 -6 18 -13z m28 -59 c4 -7 4 -10 -1 -6 -4 4 -15 2 -24 -5
-14 -11 -14 -10 -2 6 16 20 18 21 27 5z m6729 -59 c-4 -5 -12 -9 -18 -8 -9 0
-8 2 1 6 6 2 9 10 6 15 -4 7 -2 8 5 4 6 -4 9 -12 6 -17z m-6751 -1 c-3 -4 0
-8 7 -8 7 0 10 -2 7 -5 -7 -7 -38 5 -38 14 0 4 7 8 15 8 8 0 12 -4 9 -9z m17
-91 c-10 -9 -11 -8 -5 6 3 10 9 15 12 12 3 -3 0 -11 -7 -18z m4 -128 c3 -3 -6
-5 -19 -5 -14 1 -29 5 -33 10 -4 4 4 6 19 4 15 -2 30 -6 33 -9z m-32 -36 c-5
-12 -3 -14 7 -8 9 6 11 4 5 -4 -5 -9 -11 -9 -17 -3 -6 6 -7 15 -4 21 11 17 16
13 9 -6z m35 -8 c-3 -3 -9 2 -12 12 -6 14 -5 15 5 6 7 -7 10 -15 7 -18z m6752
21 c0 -3 -4 -8 -10 -11 -5 -3 -10 -1 -10 4 0 6 5 11 10 11 6 0 10 -2 10 -4z
m-6766 -72 c4 -11 2 -12 -14 -1 -11 6 -20 15 -20 19 0 12 28 -3 34 -18z m-30
-19 c-4 -10 -1 -14 7 -12 8 2 11 2 6 0 -4 -3 -5 -9 -1 -14 3 -5 1 -9 -3 -9
-12 0 -33 37 -26 44 12 12 22 6 17 -9z m46 -25 c0 -5 -5 -10 -11 -10 -5 0 -7
5 -4 10 3 6 8 10 11 10 2 0 4 -4 4 -10z m-25 -279 c-6 -5 -25 10 -25 20 0 5 6
4 14 -3 8 -7 12 -15 11 -17z m35 23 c0 -8 -19 -13 -24 -6 -3 5 1 9 9 9 8 0 15
-2 15 -3z m-23 -40 c-3 -3 -12 -4 -19 -1 -8 3 -5 6 6 6 11 1 17 -2 13 -5z m-7
-74 c0 -5 -2 -10 -4 -10 -3 0 -8 5 -11 10 -3 6 -1 10 4 10 6 0 11 -4 11 -10z
m34 -72 c-3 -5 -10 -5 -16 -2 -8 5 -9 1 -4 -12 5 -14 4 -16 -5 -7 -14 14 -6
30 15 30 8 0 13 -4 10 -9z m-30 -44 c3 -9 11 -12 17 -8 8 4 9 3 5 -5 -6 -8
-12 -9 -20 -2 -7 6 -15 9 -18 6 -3 -3 -10 0 -16 8 -8 10 -7 13 8 14 10 1 21
-5 24 -13z m18 -48 c7 4 8 2 4 -5 -9 -14 -36 3 -36 23 0 6 5 3 11 -7 6 -9 15
-14 21 -11z m-18 -32 c3 -8 10 -13 15 -9 5 3 12 1 15 -4 7 -11 -13 -9 -31 2
-16 10 -16 2 -2 -24 5 -11 15 -16 21 -13 7 5 8 2 3 -5 -5 -9 -10 -10 -18 -2
-16 16 -31 13 -18 -3 15 -18 23 -59 10 -51 -5 4 -7 10 -4 15 3 4 -1 10 -8 13
-9 3 -13 20 -11 48 3 52 2 49 13 49 5 0 12 -7 15 -16z m16 -236 c0 -11 -12
-10 -30 2 -12 7 -10 9 8 7 12 0 22 -5 22 -9z m6734 -13 c-4 -8 -8 -15 -10 -15
-2 0 -4 7 -4 15 0 8 4 15 10 15 5 0 7 -7 4 -15z m-6757 -7 c1 -23 8 -43 18
-50 5 -4 0 -6 -12 -5 -16 1 -19 5 -12 13 6 8 5 14 -6 17 -8 4 -12 13 -9 22 7
18 21 20 21 3z m38 -98 c3 -5 1 -10 -4 -10 -6 0 -11 5 -11 10 0 6 2 10 4 10 3
0 8 -4 11 -10z m6735 -4 c0 -3 -4 -8 -10 -11 -5 -3 -10 -1 -10 4 0 6 5 11 10
11 6 0 10 -2 10 -4z m-6753 -41 c0 -8 -4 -12 -9 -9 -4 3 -8 0 -8 -5 0 -6 6
-11 13 -11 8 0 7 -4 -3 -10 -8 -5 -19 -10 -25 -10 -5 0 -3 5 5 10 8 5 10 10 4
10 -6 0 -11 7 -11 15 0 8 4 12 8 9 4 -2 10 0 14 6 9 14 12 13 12 -5z m17 -53
c3 -5 -1 -9 -9 -9 -8 0 -15 4 -15 9 0 4 4 8 9 8 6 0 12 -4 15 -8z m6713 -77
c0 -6 -6 -12 -12 -12 -6 0 -12 6 -12 12 0 6 6 12 12 12 6 0 12 -6 12 -12z
m-6730 -55 c-3 -11 -1 -23 4 -26 5 -3 9 -11 9 -17 0 -7 -5 -4 -11 6 -8 14 -14
15 -24 7 -10 -9 -13 -7 -10 7 1 10 8 17 14 16 6 -2 11 4 11 12 0 8 3 15 6 15
4 0 4 -9 1 -20z m20 -77 c0 -10 -4 -10 -14 -1 -11 8 -12 7 -7 -6 3 -9 2 -16
-3 -16 -5 0 -9 9 -10 19 -1 13 4 19 16 18 10 0 18 -7 18 -14z m11 -48 c-3 -3
-9 2 -12 12 -6 14 -5 15 5 6 7 -7 10 -15 7 -18z m6632 21 c0 -2 -7 -7 -16 -10
-8 -3 -12 -2 -9 4 6 10 25 14 25 6z m-6412 -145 c-8 -12 -18 -18 -21 -14 -11
10 -8 25 3 18 6 -3 13 1 16 10 4 9 9 14 11 11 3 -3 -1 -14 -9 -25z m6136 -19
c3 -5 -1 -9 -9 -9 -8 0 -12 4 -9 9 3 4 7 8 9 8 2 0 6 -4 9 -8z m-6064 -44 c0
-7 -5 -6 -13 1 -8 6 -18 7 -22 3 -5 -4 -5 -2 -1 5 8 14 36 6 36 -9z m6040 7
c0 -12 -19 -12 -23 0 -4 9 -1 12 9 8 7 -3 14 -7 14 -8z m-5940 -20 c0 -7 -30
-13 -34 -7 -3 4 4 9 15 9 10 1 19 0 19 -2z m13 -29 c4 -10 1 -13 -8 -9 -8 3
-12 9 -9 14 7 12 11 11 17 -5z m5847 -1 c11 -13 10 -14 -5 -9 -14 6 -16 4 -10
-6 5 -8 4 -11 -3 -6 -6 4 -9 13 -5 21 7 19 8 19 23 0z m-150 -70 c-14 -17 -30
-20 -30 -4 0 5 4 8 9 4 5 -3 12 -1 16 5 3 5 9 10 12 10 3 0 0 -7 -7 -15z
m-5535 -35 c-2 -15 -35 -22 -35 -7 0 4 0 11 0 16 0 6 8 9 19 8 11 0 18 -8 16
-17z m40 0 c-3 -5 -12 -10 -18 -10 -7 0 -6 4 3 10 19 12 23 12 15 0z m5439 -8
c3 -5 -1 -9 -9 -9 -8 0 -12 4 -9 9 3 4 7 8 9 8 2 0 6 -4 9 -8z m-5373 -39 c13
-16 12 -17 -3 -4 -10 7 -18 15 -18 17 0 8 8 3 21 -13z m5276 -14 c-2 -30 -31
-43 -48 -21 -12 15 -12 15 1 5 15 -11 43 -4 41 11 -2 15 -1 26 3 26 3 0 4 -9
3 -21z m-92 -29 c3 -6 -1 -7 -9 -4 -18 7 -21 14 -7 14 6 0 13 -4 16 -10z
m-5082 -27 c-3 -7 -9 -10 -14 -7 -14 8 -11 21 5 21 8 0 12 -6 9 -14z m73 -15
c4 -7 4 -10 -1 -6 -4 4 -14 3 -22 -3 -8 -8 -13 -8 -13 -1 0 6 6 13 13 15 6 3
13 6 14 6 1 1 5 -5 9 -11z m79 -37 c3 -5 2 -12 -3 -15 -5 -3 -9 1 -9 9 0 17 3
19 12 6z m205 -145 c0 -3 -4 -8 -10 -11 -5 -3 -10 -1 -10 4 0 6 5 11 10 11 6
0 10 -2 10 -4z m47 -30 c0 -8 -6 -12 -15 -9 -11 5 -11 7 0 14 7 5 13 9 14 9 0
0 1 -6 1 -14z m50 -23 c-9 -2 -15 -9 -11 -14 3 -5 10 -7 15 -4 5 4 16 0 24 -9
20 -19 19 -32 0 -16 -8 7 -15 9 -15 5 0 -5 -9 0 -20 10 -22 20 -18 36 8 34 15
-1 15 -2 -1 -6z m4103 -27 c0 -2 -8 -10 -17 -17 -16 -13 -17 -12 -4 4 13 16
21 21 21 13z m-3983 -32 c-3 -3 -12 -4 -19 -1 -8 3 -5 6 6 6 11 1 17 -2 13 -5z
m3930 -26 c12 -21 12 -35 -3 -35 -7 0 -15 6 -18 13 -3 9 1 11 12 8 14 -5 13
-3 -2 10 -11 9 -15 16 -9 16 7 0 15 -6 20 -12z m-116 -61 c-10 -9 -11 -8 -5 6
3 10 9 15 12 12 3 -3 0 -11 -7 -18z m-3555 -72 c3 -17 -12 -20 -21 -5 -3 6 -1
10 5 10 6 0 8 6 4 13 -4 6 -3 8 1 4 5 -4 10 -14 11 -22z m3445 -12 c10 -11 10
-14 2 -9 -7 4 -13 3 -13 -3 0 -6 -10 -15 -22 -21 -21 -10 -21 -10 -5 3 10 8
17 19 16 23 -5 27 4 30 22 7z m-3287 -99 c3 -8 2 -12 -4 -9 -6 3 -10 10 -10
16 0 14 7 11 14 -7z m26 6 c0 -5 -2 -10 -4 -10 -3 0 -8 5 -11 10 -3 6 -1 10 4
10 6 0 11 -4 11 -10z m82 -62 c-8 -8 -9 -4 -5 13 4 13 8 18 11 10 2 -7 -1 -18
-6 -23z m2958 21 c0 -15 -18 -19 -23 -6 -3 8 1 14 9 14 8 0 14 -4 14 -8z
m-2900 -19 c0 -5 -2 -10 -4 -10 -3 0 -8 5 -11 10 -3 6 -1 10 4 10 6 0 11 -4
11 -10z m2811 -7 c13 -16 12 -17 -3 -4 -10 7 -18 15 -18 17 0 8 8 3 21 -13z
m-67 -59 c5 -14 4 -15 -9 -4 -17 14 -19 20 -6 20 5 0 12 -7 15 -16z m-2604 -8
c0 -3 -4 -8 -10 -11 -5 -3 -10 -1 -10 4 0 6 5 11 10 11 6 0 10 -2 10 -4z
m2414 -64 c3 -5 -1 -9 -9 -9 -8 0 -12 4 -9 9 3 4 7 8 9 8 2 0 6 -4 9 -8z
m-2294 -22 c8 -5 11 -10 5 -10 -5 0 -17 5 -25 10 -8 5 -10 10 -5 10 6 0 17 -5
25 -10z m19 -47 c-10 -11 -14 -11 -20 -1 -10 17 -2 28 17 21 11 -4 12 -8 3
-20z m121 -12 c0 -6 -4 -12 -8 -15 -5 -3 -9 1 -9 9 0 8 4 15 9 15 4 0 8 -4 8
-9z m2005 -21 c-3 -5 -12 -10 -18 -10 -7 0 -6 4 3 10 19 12 23 12 15 0z
m-1969 -22 c4 -7 3 -8 -4 -4 -7 4 -12 2 -12 -5 0 -7 -3 -10 -6 -6 -6 5 3 27
11 27 2 0 7 -5 11 -12z m1874 -57 c0 -14 -36 -41 -45 -34 -4 5 -5 0 -2 -10 4
-11 3 -16 -4 -12 -13 9 -6 30 9 30 7 0 11 5 10 10 -2 6 -7 9 -11 7 -5 -1 -6 1
-4 6 7 10 47 13 47 3z m-1594 -103 c4 -7 3 -8 -4 -4 -7 4 -12 2 -12 -3 0 -6
-5 -11 -11 -11 -8 0 -8 5 1 15 15 18 17 18 26 3z m104 -14 c0 -8 -19 -13 -24
-6 -3 5 1 9 9 9 8 0 15 -2 15 -3z m1200 -54 c0 -5 -5 -10 -11 -10 -5 0 -7 5
-4 10 3 6 8 10 11 10 2 0 4 -4 4 -10z m-18 -44 c-3 -5 -9 -1 -13 10 -12 31
-10 39 5 19 8 -11 12 -24 8 -29z m-47 3 c11 -16 1 -19 -13 -3 -7 8 -8 14 -3
14 5 0 13 -5 16 -11z m-961 -35 c3 -8 2 -12 -4 -9 -6 3 -10 10 -10 16 0 14 7
11 14 -7z m850 -19 c-4 -8 -1 -15 4 -15 6 0 12 7 14 15 2 12 6 11 16 -6 8 -12
9 -18 2 -14 -6 4 -22 -1 -37 -10 -14 -9 -23 -12 -19 -7 3 6 2 13 -3 16 -5 4
-12 -1 -14 -9 -4 -13 -5 -13 -3 0 0 9 5 15 9 13 5 -2 13 5 18 15 12 21 21 23
13 2z m-774 -46 c0 8 3 12 6 8 3 -3 3 -11 -1 -17 -8 -13 -35 5 -35 23 0 6 7 2
15 -9 10 -13 14 -15 15 -5z m685 11 c3 -5 1 -10 -4 -10 -6 0 -11 5 -11 10 0 6
2 10 4 10 3 0 8 -4 11 -10z m-615 -44 c0 -2 -7 -9 -15 -16 -13 -11 -14 -10 -9
4 5 14 24 23 24 12z m478 -48 c-2 -6 -12 -12 -21 -14 -9 -1 -15 2 -11 7 3 5
10 7 15 4 5 -4 9 -1 9 4 0 6 3 11 6 11 3 0 4 -5 2 -12z m-353 -8 c3 -6 -1 -7
-9 -4 -18 7 -21 14 -7 14 6 0 13 -4 16 -10z m295 -25 c0 -8 -2 -15 -4 -15 -2
0 -6 7 -10 15 -3 8 -1 15 4 15 6 0 10 -7 10 -15z m-207 -68 c-9 -15 -21 4 -15
25 5 21 6 21 12 2 4 -10 5 -22 3 -27z m152 33 c-3 -5 -12 -10 -18 -10 -7 0 -6
4 3 10 19 12 23 12 15 0z m-40 -49 c3 -5 0 -13 -6 -17 -7 -4 -9 -3 -5 4 3 6
-2 13 -11 15 -16 4 -16 5 -1 6 9 0 19 -3 23 -8z"/>
<path d="M6800 6276 c0 -2 8 -10 18 -17 15 -13 16 -12 3 4 -13 16 -21 21 -21
13z"/>
<path d="M1236 1612 c-3 -5 1 -9 9 -9 8 0 12 4 9 9 -3 4 -7 8 -9 8 -2 0 -6 -4
-9 -8z"/>
<path d="M3936 7898 c3 -5 10 -6 15 -3 13 9 11 12 -6 12 -8 0 -12 -4 -9 -9z"/>
<path d="M4107 7876 c-4 -10 1 -12 14 -9 23 6 24 9 5 16 -8 3 -17 0 -19 -7z"/>
<path d="M3780 7770 c0 -5 5 -10 11 -10 5 0 7 5 4 10 -3 6 -8 10 -11 10 -2 0
-4 -4 -4 -10z"/>
<path d="M3700 7760 c-9 -6 -10 -10 -3 -10 6 0 15 5 18 10 8 12 4 12 -15 0z"/>
<path d="M4510 7639 c0 -5 5 -7 10 -4 6 3 10 8 10 11 0 2 -4 4 -10 4 -5 0 -10
-5 -10 -11z"/>
<path d="M3430 7601 c0 -6 4 -13 10 -16 6 -3 7 1 4 9 -7 18 -14 21 -14 7z"/>
<path d="M4585 7601 c-6 -11 9 -23 19 -14 9 9 7 23 -3 23 -6 0 -12 -4 -16 -9z"/>
<path d="M4634 7602 c3 -5 0 -13 -6 -15 -9 -4 -10 -6 -1 -6 17 -1 25 16 12 25
-7 4 -9 3 -5 -4z"/>
<path d="M4660 7606 c0 -2 8 -10 18 -17 15 -13 16 -12 3 4 -13 16 -21 21 -21
13z"/>
<path d="M3375 7560 c-3 -5 -1 -10 4 -10 6 0 11 5 11 10 0 6 -2 10 -4 10 -3 0
-8 -4 -11 -10z"/>
<path d="M4789 7483 c-13 -16 -12 -17 4 -4 9 7 17 15 17 17 0 8 -8 3 -21 -13z"/>
<path d="M3237 7472 c-10 -10 -14 -22 -10 -27 5 -4 0 -5 -9 -2 -25 9 -22 0 3
-14 13 -7 19 -7 15 -1 -3 6 -2 13 4 17 6 4 8 10 5 15 -3 5 3 13 12 19 10 6 13
11 7 11 -6 0 -18 -8 -27 -18z"/>
<path d="M3155 7439 c-4 -6 -5 -12 -2 -15 2 -3 7 2 10 11 7 17 1 20 -8 4z"/>
<path d="M4860 7441 c0 -6 4 -13 10 -16 6 -3 7 1 4 9 -7 18 -14 21 -14 7z"/>
<path d="M4896 7429 c9 -10 13 -23 9 -28 -3 -6 -4 -11 -1 -11 3 0 10 9 16 20
8 16 8 20 -2 18 -7 -2 -12 2 -11 8 1 6 -5 11 -13 11 -12 0 -11 -3 2 -18z"/>
<path d="M3128 7413 c6 -2 12 -9 12 -14 0 -6 -10 -5 -22 2 -17 8 -20 8 -12 0
6 -6 20 -13 32 -16 19 -3 21 -1 12 16 -6 10 -16 19 -23 18 -9 0 -9 -2 1 -6z"/>
<path d="M4947 7376 c-4 -10 -1 -13 8 -9 8 3 12 9 9 14 -7 12 -11 11 -17 -5z"/>
<path d="M5010 7380 c-9 -6 -10 -10 -3 -10 6 0 15 5 18 10 8 12 4 12 -15 0z"/>
<path d="M5036 7343 c-6 -14 -5 -15 5 -6 7 7 10 15 7 18 -3 3 -9 -2 -12 -12z"/>
<path d="M5075 7301 c-3 -5 -1 -12 5 -16 5 -3 10 1 10 9 0 18 -6 21 -15 7z"/>
<path d="M2758 7213 c7 -3 16 -2 19 1 4 3 -2 6 -13 5 -11 0 -14 -3 -6 -6z"/>
<path d="M5270 7198 c0 -4 7 -8 15 -8 8 0 15 4 15 8 0 5 -7 9 -15 9 -8 0 -15
-4 -15 -9z"/>
<path d="M2755 7191 c-11 -5 -23 -6 -28 -4 -4 2 -6 0 -5 -5 2 -6 -1 -9 -7 -8
-5 0 -9 5 -7 9 1 5 -2 6 -8 2 -6 -3 -8 -10 -5 -15 3 -5 -3 -13 -12 -19 -11 -6
-13 -11 -5 -11 7 0 10 -5 6 -12 -4 -7 -3 -8 5 -4 6 4 9 11 6 16 -3 5 -1 11 4
14 5 3 11 -1 15 -9 8 -22 25 -18 21 5 -3 18 26 38 48 32 5 -1 6 2 2 8 -3 5 -7
10 -8 9 -1 0 -11 -4 -22 -8z"/>
<path d="M5335 7180 c3 -5 8 -10 11 -10 2 0 4 5 4 10 0 6 -5 10 -11 10 -5 0
-7 -4 -4 -10z"/>
<path d="M5380 7136 c0 -2 7 -7 16 -10 8 -3 12 -2 9 4 -6 10 -25 14 -25 6z"/>
<path d="M2435 7041 c-3 -5 -2 -12 3 -15 5 -3 9 1 9 9 0 17 -3 19 -12 6z"/>
<path d="M2516 7033 c-6 -14 -5 -15 5 -6 7 7 10 15 7 18 -3 3 -9 -2 -12 -12z"/>
<path d="M5635 6993 c3 -3 0 -11 -5 -18 -7 -8 -5 -12 4 -12 14 0 16 22 3 32
-4 3 -5 2 -2 -2z"/>
<path d="M5668 6973 c7 -3 16 -2 19 1 4 3 -2 6 -13 5 -11 0 -14 -3 -6 -6z"/>
<path d="M2290 6940 c-9 -6 -10 -10 -3 -10 6 0 15 5 18 10 8 12 4 12 -15 0z"/>
<path d="M5759 6893 c-7 -10 -9 -15 -5 -11 5 4 15 3 23 -3 9 -9 13 -8 13 0 0
6 -5 11 -11 11 -5 0 -7 5 -4 10 10 17 -2 11 -16 -7z"/>
<path d="M2133 6845 c0 -8 4 -12 9 -9 5 3 6 10 3 15 -9 13 -12 11 -12 -6z"/>
<path d="M2050 6798 c0 -11 12 -10 30 2 12 7 10 9 -8 7 -12 0 -22 -5 -22 -9z"/>
<path d="M5950 6800 c0 -5 5 -10 10 -10 6 0 10 5 10 10 0 6 -4 10 -10 10 -5 0
-10 -4 -10 -10z"/>
<path d="M5999 6778 c-10 -33 6 -46 28 -24 4 4 4 7 -2 6 -21 -5 -29 1 -15 10
10 6 11 10 3 10 -7 0 -13 -1 -14 -2z"/>
<path d="M1970 6728 c0 -6 -3 -8 -6 -5 -4 3 -16 1 -28 -5 -11 -7 -25 -11 -29
-10 -5 1 -6 -2 -2 -8 3 -5 1 -10 -4 -10 -6 0 -11 -5 -11 -11 0 -8 4 -8 13 -1
6 6 17 11 22 12 6 1 9 7 7 12 -2 6 4 8 12 5 8 -3 22 3 32 14 10 11 12 19 6 19
-7 0 -12 -5 -12 -12z"/>
<path d="M6241 6634 c0 -11 3 -14 6 -6 3 7 2 16 -1 19 -3 4 -6 -2 -5 -13z"/>
<path d="M6284 6594 c-18 -14 -18 -15 4 -4 12 6 22 13 22 15 0 8 -5 6 -26 -11z"/>
<path d="M6403 6535 c-7 -8 -9 -16 -4 -19 5 -3 12 1 15 10 8 22 4 25 -11 9z"/>
<path d="M6436 6542 c-3 -5 1 -9 9 -9 8 0 12 4 9 9 -3 4 -7 8 -9 8 -2 0 -6 -4
-9 -8z"/>
<path d="M6437 6504 c-4 -4 -2 -13 4 -21 9 -10 15 -10 25 -2 8 6 14 17 14 23
0 6 -6 2 -12 -9 -10 -18 -12 -18 -17 -2 -4 10 -10 15 -14 11z"/>
<path d="M1490 6485 c-7 -9 -8 -15 -2 -15 5 0 12 7 16 15 3 8 4 15 2 15 -2 0
-9 -7 -16 -15z"/>
<path d="M1468 6453 c7 -3 16 -2 19 1 4 3 -2 6 -13 5 -11 0 -14 -3 -6 -6z"/>
<path d="M1407 6417 c-7 -19 8 -33 18 -16 4 5 14 8 22 5 8 -4 11 -1 8 5 -4 6
-13 8 -20 5 -8 -3 -15 0 -18 7 -2 6 -6 4 -10 -6z"/>
<path d="M1374 6412 c3 -6 -2 -15 -11 -21 -10 -6 -13 -11 -7 -11 20 0 37 27
23 36 -7 4 -9 3 -5 -4z"/>
<path d="M1251 6314 c6 -7 16 -11 21 -8 11 7 3 17 -18 20 -12 2 -13 -1 -3 -12z"/>
<path d="M1099 6243 c12 -24 53 -29 44 -5 -4 9 -9 10 -16 3 -7 -7 -15 -5 -24
7 -13 15 -13 15 -4 -5z"/>
<path d="M1080 6233 c0 -7 -7 -10 -17 -7 -17 5 -17 5 0 -6 9 -6 15 -15 12 -21
-4 -5 -2 -9 3 -9 15 0 21 25 11 41 -6 9 -9 10 -9 2z"/>
<path d="M7028 6173 c6 -2 12 -9 12 -14 0 -6 -5 -7 -12 -3 -7 5 -8 3 -3 -5 5
-9 11 -9 17 -3 12 12 2 32 -15 31 -9 0 -9 -2 1 -6z"/>
<path d="M806 6074 c-3 -9 -9 -13 -14 -10 -4 2 -8 -3 -8 -13 0 -10 6 -18 14
-18 7 0 11 6 8 13 -3 8 -1 16 4 19 5 3 10 -1 12 -10 2 -8 8 -11 14 -7 6 5 4
13 -7 24 -15 14 -18 14 -23 2z"/>
<path d="M7172 6074 c-10 -11 -10 -14 0 -15 7 -1 18 -2 24 -3 7 0 21 -12 33
-26 11 -14 20 -19 21 -12 0 6 -4 12 -9 12 -5 0 -13 9 -16 20 -3 11 -12 20 -20
20 -7 0 -15 4 -17 9 -1 5 -9 3 -16 -5z"/>
<path d="M7236 6073 c-6 -14 -5 -15 5 -6 7 7 10 15 7 18 -3 3 -9 -2 -12 -12z"/>
<path d="M7255 6040 c3 -5 8 -10 11 -10 2 0 4 5 4 10 0 6 -5 10 -11 10 -5 0
-7 -4 -4 -10z"/>
<path d="M737 6016 c4 -5 0 -7 -8 -4 -10 4 -15 -1 -16 -14 -2 -20 -1 -20 22 2
14 13 29 19 36 15 7 -5 10 -4 5 3 -3 6 -15 10 -26 9 -10 -1 -16 -5 -13 -11z"/>
<path d="M680 6006 c0 -8 4 -17 9 -20 5 -4 7 3 4 14 -6 23 -13 26 -13 6z"/>
<path d="M7349 6003 c-13 -16 -12 -17 4 -4 9 7 17 15 17 17 0 8 -8 3 -21 -13z"/>
<path d="M635 6001 c-3 -5 -2 -12 3 -15 5 -3 9 1 9 9 0 17 -3 19 -12 6z"/>
<path d="M590 5730 c-9 -6 -10 -10 -3 -10 6 0 15 5 18 10 8 12 4 12 -15 0z"/>
<path d="M590 5699 c0 -5 5 -7 10 -4 6 3 10 8 10 11 0 2 -4 4 -10 4 -5 0 -10
-5 -10 -11z"/>
<path d="M587 5639 c6 -22 20 -26 20 -4 0 8 -6 16 -13 19 -7 3 -10 -2 -7 -15z"/>
<path d="M585 5529 c4 -5 1 -18 -7 -27 -11 -15 -11 -15 3 -5 9 7 18 11 21 8 2
-3 5 2 5 10 0 8 -7 17 -14 19 -8 3 -11 1 -8 -5z"/>
<path d="M590 5459 c0 -5 5 -7 10 -4 6 3 10 8 10 11 0 2 -4 4 -10 4 -5 0 -10
-5 -10 -11z"/>
<path d="M7400 5370 c-13 -9 -13 -10 0 -10 13 0 13 -1 0 -11 -12 -8 -12 -10
-1 -7 8 2 15 12 17 21 3 20 3 19 -16 7z"/>
<path d="M590 5366 c0 -2 7 -9 15 -16 13 -11 14 -10 9 4 -5 14 -24 23 -24 12z"/>
<path d="M7400 5300 c-13 -8 -12 -10 3 -10 9 0 17 5 17 10 0 12 -1 12 -20 0z"/>
<path d="M590 5219 c0 -5 5 -7 10 -4 6 3 10 8 10 11 0 2 -4 4 -10 4 -5 0 -10
-5 -10 -11z"/>
<path d="M581 5164 c0 -11 3 -14 6 -6 3 7 2 16 -1 19 -3 4 -6 -2 -5 -13z"/>
<path d="M590 5109 c-12 -7 -12 -9 -1 -9 10 0 11 -3 2 -14 -8 -9 -8 -16 -2
-20 5 -4 8 -18 5 -31 -2 -14 0 -25 6 -25 6 0 9 4 5 9 -3 5 -1 13 5 16 7 4 7
12 2 18 -10 14 -10 27 1 44 10 16 -5 24 -23 12z"/>
<path d="M590 4979 c0 -5 5 -7 10 -4 6 3 10 8 10 11 0 2 -4 4 -10 4 -5 0 -10
-5 -10 -11z"/>
<path d="M575 4931 c-3 -5 -2 -12 3 -15 5 -3 9 1 9 9 0 17 -3 19 -12 6z"/>
<path d="M595 4749 c-4 -6 -5 -12 -2 -15 2 -3 7 2 10 11 7 17 1 20 -8 4z"/>
<path d="M593 4713 c4 -6 2 -13 -5 -15 -8 -3 -6 -6 4 -10 17 -7 19 15 3 29 -4
4 -5 3 -2 -4z"/>
<path d="M7410 4639 c0 -5 5 -7 10 -4 6 3 10 8 10 11 0 2 -4 4 -10 4 -5 0 -10
-5 -10 -11z"/>
<path d="M590 4586 c0 -2 7 -7 16 -10 8 -3 12 -2 9 4 -6 10 -25 14 -25 6z"/>
<path d="M593 4558 c3 -9 1 -19 -6 -21 -7 -3 -2 -4 10 -4 18 1 20 4 10 17 -19
25 -20 26 -14 8z"/>
<path d="M7410 4479 c0 -5 5 -7 10 -4 6 3 10 8 10 11 0 2 -4 4 -10 4 -5 0 -10
-5 -10 -11z"/>
<path d="M7410 3679 c0 -5 5 -7 10 -4 6 3 10 8 10 11 0 2 -4 4 -10 4 -5 0 -10
-5 -10 -11z"/>
<path d="M7410 3519 c0 -5 5 -7 10 -4 6 3 10 8 10 11 0 2 -4 4 -10 4 -5 0 -10
-5 -10 -11z"/>
<path d="M605 3430 c-11 -5 -14 -9 -6 -9 11 -1 11 -4 1 -16 -7 -8 -8 -15 -3
-15 5 0 15 11 21 25 6 14 11 25 9 24 -1 0 -11 -4 -22 -9z"/>
<path d="M7400 3430 c-9 -6 -10 -10 -3 -10 6 0 15 5 18 10 8 12 4 12 -15 0z"/>
<path d="M7400 3380 c-13 -8 -12 -10 3 -10 9 0 17 5 17 10 0 12 -1 12 -20 0z"/>
<path d="M592 3177 c10 -8 14 -18 10 -22 -4 -5 -2 -5 5 -1 6 3 14 2 18 -4 5
-9 -5 -14 -25 -12 -3 0 -6 -8 -6 -19 0 -10 4 -19 8 -19 4 0 8 6 8 14 0 8 7 16
15 20 24 9 17 24 -17 41 -24 11 -28 12 -16 2z"/>
<path d="M593 2925 c0 -8 4 -15 9 -15 4 0 8 7 8 15 0 8 -4 15 -8 15 -5 0 -9
-7 -9 -15z"/>
<path d="M609 2813 c-10 -11 -10 -14 -1 -9 7 4 12 1 12 -9 0 -9 5 -13 10 -10
8 5 8 11 1 19 -6 7 -8 16 -4 19 3 4 4 7 1 7 -3 0 -12 -8 -19 -17z"/>
<path d="M7395 2807 c-13 -10 -15 -16 -6 -21 6 -4 9 -11 7 -15 -3 -4 2 -8 10
-8 10 0 11 4 4 11 -12 12 -14 29 -2 22 5 -3 9 1 9 9 0 18 1 18 -22 2z"/>
<path d="M596 2773 c-6 -14 -5 -15 5 -6 7 7 10 15 7 18 -3 3 -9 -2 -12 -12z"/>
<path d="M7385 2640 c3 -5 8 -10 11 -10 2 0 4 5 4 10 0 6 -5 10 -11 10 -5 0
-7 -4 -4 -10z"/>
<path d="M601 2553 c7 -12 15 -20 18 -17 3 2 -3 12 -13 22 -17 16 -18 16 -5
-5z"/>
<path d="M7391 2486 c-8 -10 -9 -16 -1 -21 6 -3 8 -10 6 -14 -3 -4 2 -8 10 -8
10 0 11 4 4 11 -5 5 -10 17 -10 26 0 13 1 13 10 0 6 -9 10 -10 10 -3 0 19 -17
24 -29 9z"/>
<path d="M7402 2360 c-7 -12 -8 -20 -2 -20 5 0 10 5 10 11 0 5 4 7 10 4 6 -3
7 1 4 9 -8 20 -7 20 -22 -4z"/>
<path d="M615 2169 c-10 -15 3 -25 16 -12 7 7 7 13 1 17 -6 3 -14 1 -17 -5z"/>
<path d="M590 2140 c0 -6 7 -10 15 -10 8 0 15 2 15 4 0 2 -7 6 -15 10 -8 3
-15 1 -15 -4z"/>
<path d="M7395 2080 c4 -6 11 -8 16 -5 14 9 11 15 -7 15 -8 0 -12 -5 -9 -10z"/>
<path d="M7410 2051 c0 -6 4 -13 10 -16 6 -3 7 1 4 9 -7 18 -14 21 -14 7z"/>
<path d="M597 2031 c-3 -12 0 -19 7 -18 6 1 10 -4 9 -10 -2 -7 2 -13 7 -13 13
0 13 3 -4 34 -12 25 -14 25 -19 7z"/>
<path d="M7363 1974 c4 -4 1 -14 -5 -22 -7 -8 -13 -21 -14 -29 -2 -11 1 -12
12 -2 8 6 12 14 9 17 -2 3 3 10 12 17 14 11 14 12 -3 19 -10 4 -15 4 -11 0z"/>
<path d="M600 1960 c-9 -6 -10 -10 -3 -10 6 0 15 5 18 10 8 12 4 12 -15 0z"/>
<path d="M7270 1900 c6 -11 15 -20 20 -20 6 0 2 9 -7 20 -10 11 -19 20 -21 20
-1 0 2 -9 8 -20z"/>
<path d="M7295 1910 c-3 -5 -1 -10 4 -10 6 0 11 5 11 10 0 6 -2 10 -4 10 -3 0
-8 -4 -11 -10z"/>
<path d="M7125 1780 c-3 -6 1 -7 9 -4 18 7 21 14 7 14 -6 0 -13 -4 -16 -10z"/>
<path d="M6960 1680 c-9 -6 -10 -10 -3 -10 6 0 15 5 18 10 8 12 4 12 -15 0z"/>
<path d="M1190 1640 c0 -5 5 -10 11 -10 5 0 7 5 4 10 -3 6 -8 10 -11 10 -2 0
-4 -4 -4 -10z"/>
<path d="M1180 1609 c0 -5 -4 -8 -9 -4 -5 3 -12 1 -15 -4 -4 -5 2 -8 11 -7 15
3 33 26 19 26 -3 0 -6 -5 -6 -11z"/>
<path d="M6828 1613 c7 -3 16 -2 19 1 4 3 -2 6 -13 5 -11 0 -14 -3 -6 -6z"/>
<path d="M6770 1579 c0 -5 5 -7 10 -4 6 3 10 8 10 11 0 2 -4 4 -10 4 -5 0 -10
-5 -10 -11z"/>
<path d="M1274 1542 c4 -3 14 -7 22 -8 9 -1 13 0 10 4 -4 3 -14 7 -22 8 -9 1
-13 0 -10 -4z"/>
<path d="M1340 1533 c0 -19 21 -27 33 -13 9 10 9 11 -2 5 -8 -4 -17 -2 -22 6
-6 9 -9 10 -9 2z"/>
<path d="M1384 1512 c-10 -15 -8 -18 15 -19 14 0 18 1 9 4 -10 2 -15 10 -11
19 7 20 0 18 -13 -4z"/>
<path d="M1430 1446 c0 -2 7 -7 16 -10 8 -3 12 -2 9 4 -6 10 -25 14 -25 6z"/>
<path d="M1539 1437 c6 -8 7 -18 3 -22 -4 -5 -1 -5 6 -1 10 6 10 11 1 22 -6 8
-14 14 -16 14 -3 0 0 -6 6 -13z"/>
<path d="M1586 1362 c-2 -4 4 -8 14 -8 10 0 16 4 14 8 -3 4 -9 8 -14 8 -5 0
-11 -4 -14 -8z"/>
<path d="M6337 1353 c-4 -3 -7 -11 -7 -17 0 -6 5 -5 12 2 6 6 9 14 7 17 -3 3
-9 2 -12 -2z"/>
<path d="M6375 1340 c-3 -5 -1 -10 4 -10 6 0 11 5 11 10 0 6 -2 10 -4 10 -3 0
-8 -4 -11 -10z"/>
<path d="M1731 1318 c11 -26 45 -41 37 -17 -2 6 -7 9 -10 7 -4 -2 -14 6 -23
17 -14 19 -15 18 -4 -7z"/>
<path d="M1716 1287 c3 -10 9 -15 12 -12 3 3 0 11 -7 18 -10 9 -11 8 -5 -6z"/>
<path d="M6236 1285 c4 -8 8 -15 10 -15 2 0 4 7 4 15 0 8 -4 15 -10 15 -5 0
-7 -7 -4 -15z"/>
<path d="M1876 1205 c-3 -8 -1 -15 4 -15 6 0 10 7 10 15 0 8 -2 15 -4 15 -2 0
-6 -7 -10 -15z"/>
<path d="M6105 1209 c-4 -6 -5 -12 -2 -15 2 -3 7 2 10 11 7 17 1 20 -8 4z"/>
<path d="M1990 1170 c0 -5 5 -10 11 -10 5 0 7 5 4 10 -3 6 -8 10 -11 10 -2 0
-4 -4 -4 -10z"/>
<path d="M2067 1113 c3 -7 9 -13 13 -13 4 0 10 6 13 13 3 7 -3 13 -13 13 -10
0 -16 -6 -13 -13z"/>
<path d="M5901 1106 c-15 -15 -19 -26 -12 -31 12 -7 44 21 47 41 3 21 -10 17
-35 -10z m28 1 c-2 -1 -13 -9 -24 -17 -19 -14 -19 -14 -6 3 7 9 18 17 24 17 6
0 8 -1 6 -3z"/>
<path d="M5770 979 c0 -5 5 -7 10 -4 6 3 10 8 10 11 0 2 -4 4 -10 4 -5 0 -10
-5 -10 -11z"/>
<path d="M2353 955 c0 -8 4 -15 9 -15 4 0 8 4 8 9 0 6 -4 12 -8 15 -5 3 -9 -1
-9 -9z"/>
<path d="M5676 953 c-4 -9 -4 -18 -1 -21 3 -3 5 0 5 7 0 9 5 9 20 1 25 -13 25
-9 1 12 -18 15 -20 15 -25 1z"/>
<path d="M2384 949 c-3 -6 0 -15 7 -20 14 -8 32 9 23 23 -7 11 -22 10 -30 -3z"/>
<path d="M5604 916 c-19 -24 -22 -26 -46 -26 -8 0 -6 -5 4 -10 13 -8 23 -4 42
15 16 16 31 23 39 19 8 -5 7 -2 -2 9 -17 21 -14 22 -37 -7z"/>
<path d="M2425 880 c-3 -6 1 -7 9 -4 18 7 21 14 7 14 -6 0 -13 -4 -16 -10z"/>
<path d="M5476 861 c-3 -5 1 -11 9 -14 9 -4 12 -1 8 9 -6 16 -10 17 -17 5z"/>
<path d="M5321 746 c-6 -8 -6 -17 0 -26 8 -12 9 -11 7 5 -3 22 18 27 42 11 12
-8 13 -8 3 4 -17 18 -40 21 -52 6z"/>
<path d="M5195 620 c-3 -5 -1 -10 4 -10 6 0 11 5 11 10 0 6 -2 10 -4 10 -3 0
-8 -4 -11 -10z"/>
<path d="M5017 573 c-11 -10 -8 -20 7 -26 8 -3 13 0 12 8 -3 19 -11 27 -19 18z"/>
<path d="M4815 420 c-3 -5 -1 -10 4 -10 6 0 11 5 11 10 0 6 -2 10 -4 10 -3 0
-8 -4 -11 -10z"/>
<path d="M4766 402 c-3 -5 1 -9 9 -9 8 0 15 4 15 9 0 4 -4 8 -9 8 -6 0 -12 -4
-15 -8z"/>
<path d="M4670 358 c0 -4 4 -8 9 -8 6 0 12 4 15 8 3 5 -1 9 -9 9 -8 0 -15 -4
-15 -9z"/>
<path d="M3480 320 c0 -5 5 -10 11 -10 5 0 7 5 4 10 -3 6 -8 10 -11 10 -2 0
-4 -4 -4 -10z"/>
<path d="M3606 253 c-2 -3 -2 -11 1 -19 4 -12 8 -11 20 3 13 17 14 17 8 -3 -3
-14 -1 -21 9 -21 10 0 12 6 7 20 -7 19 -34 31 -45 20z"/>
<path d="M3717 203 c-4 -3 -7 -11 -7 -17 0 -6 5 -5 12 2 6 6 9 14 7 17 -3 3
-9 2 -12 -2z"/>
<path d="M4410 179 c0 -5 5 -7 10 -4 6 3 10 8 10 11 0 2 -4 4 -10 4 -5 0 -10
-5 -10 -11z"/>
<path d="M3710 160 c0 -5 5 -10 10 -10 6 0 10 5 10 10 0 6 -4 10 -10 10 -5 0
-10 -4 -10 -10z"/>
<path d="M4350 161 c0 -6 4 -13 10 -16 6 -3 7 1 4 9 -7 18 -14 21 -14 7z"/>
<path d="M3790 121 c0 -10 29 -36 34 -30 1 2 -6 12 -16 22 -10 9 -18 13 -18 8z"/>
<path d="M4275 101 c-3 -5 -2 -12 3 -15 5 -3 9 1 9 9 0 17 -3 19 -12 6z"/>
<path d="M3850 91 c0 -6 4 -13 10 -16 6 -3 7 1 4 9 -7 18 -14 21 -14 7z"/>
<path d="M3925 90 c-8 -13 -1 -24 14 -19 6 3 7 10 2 18 -6 10 -10 10 -16 1z"/>
<path d="M3886 82 c-3 -5 1 -9 9 -9 8 0 15 4 15 9 0 10 -17 10 -24 0z"/>
<path d="M4156 71 c-3 -5 1 -11 9 -14 9 -4 12 -1 8 9 -6 16 -10 17 -17 5z"/>
<path d="M3930 40 c0 -5 5 -10 11 -10 5 0 7 5 4 10 -3 6 -8 10 -11 10 -2 0 -4
-4 -4 -10z"/>
</g>
</svg>
